<?xml version="1.0" standalone="no"?>
<!DOCTYPE svg PUBLIC "-//W3C//DTD SVG 1.1//EN" "http://www.w3.org/Graphics/SVG/1.1/DTD/svg11.dtd" >
<svg xmlns="http://www.w3.org/2000/svg" xmlns:xlink="http://www.w3.org/1999/xlink" version="1.1">
<metadata>
Created by FontForge 20161013 at Thu Nov  4 12:49:52 2004
 By ,,,
Digitised data (c) The Monotype Corpration. All rights reserved.
</metadata>
<defs>
<font id="ArialMTStd-Medium" horiz-adv-x="583" >
  <font-face 
    font-family="Arial MT Std Medium"
    font-weight="500"
    font-stretch="normal"
    units-per-em="1000"
    panose-1="2 11 7 3 3 4 3 2 2 4"
    ascent="726"
    descent="-274"
    x-height="518"
    cap-height="716"
    bbox="-197 -232 1006 938"
    underline-thickness="50"
    underline-position="-200"
    unicode-range="U+0020-FB02"
  />
<missing-glyph horiz-adv-x="600" 
d="M62 0v665h475v-665h-475zM138 618l162 -243l161 243h-323zM110 575v-484l40 61l80 120l41 61zM490 575l-162 -242l162 -243v485zM461 48l-161 242l-162 -242h323z" />
    <glyph glyph-name="fi" unicode="fi" horiz-adv-x="552" 
d="M371 0v518h111v-518h-111zM371 603v113h111v-113h-111zM201 518h102v-87h-102v-431h-111v431h-76v87h76v48q0 24 1 39t9 41t23 41.5t45.5 28t73.5 12.5q45 0 97 -13l-16 -86q-27 6 -59 6q-22 0 -36 -6.5t-19.5 -19.5t-6.5 -22t-1 -26v-43z" />
    <glyph glyph-name="fl" unicode="fl" horiz-adv-x="552" 
d="M371 0v716h111v-716h-111zM201 518h102v-87h-102v-431h-111v431h-76v87h76v48q0 24 1 39t9 41t23 41.5t45.5 28t73.5 12.5q45 0 97 -13l-16 -86q-27 6 -59 6q-22 0 -36 -6.5t-19.5 -19.5t-6.5 -22t-1 -26v-43z" />
    <glyph glyph-name=".notdef" horiz-adv-x="600" 
d="M62 0v665h475v-665h-475zM138 618l162 -243l161 243h-323zM110 575v-484l40 61l80 120l41 61zM490 575l-162 -242l162 -243v485zM461 48l-161 242l-162 -242h323z" />
    <glyph glyph-name=".null" horiz-adv-x="0" 
 />
    <glyph glyph-name="nonmarkingreturn" horiz-adv-x="333" 
 />
    <glyph glyph-name="space" unicode=" " horiz-adv-x="276" 
 />
    <glyph glyph-name="exclam" unicode="!" horiz-adv-x="302" 
d="M91 0v118h118v-118h-118zM117 181l-31 372v163h127v-163l-30 -372h-66z" />
    <glyph glyph-name="quotedbl" unicode="&#x22;" horiz-adv-x="406" 
d="M70 462l-24 133v121h124v-121l-23 -133h-77zM260 462l-24 133v121h124v-121l-23 -133h-77z" />
    <glyph glyph-name="numbersign" unicode="#" horiz-adv-x="552" 
d="M43 -12l41 200h-75v89h93l33 161h-126v89h144l40 201h90l-40 -201h132l40 201h92l-40 -201h76v-89h-94l-34 -161h128v-89h-146l-40 -200h-91l41 200h-133l-40 -200h-91zM225 438l-33 -161h132l33 161h-132z" />
    <glyph glyph-name="dollar" unicode="$" horiz-adv-x="552" 
d="M244 -102v88q-189 25 -209 214l106 14q11 -64 37.5 -92.5t65.5 -39.5v243q-31 9 -55.5 19t-51.5 27t-45 38.5t-30 53t-12 70.5q0 81 52.5 135.5t141.5 64.5v45h61v-45q163 -23 187 -174l-106 -14q-13 79 -81 98v-224q35 -9 54.5 -15.5t52.5 -23.5t51.5 -37t33 -55
t14.5 -80q0 -87 -55.5 -150t-150.5 -70v-90h-61zM244 437v207q-50 -13 -69.5 -42.5t-19.5 -61.5q0 -72 89 -103zM305 309v-231q42 6 72 38t30 81q0 84 -102 112z" />
    <glyph glyph-name="percent" unicode="%" horiz-adv-x="885" 
d="M206 660q-64 0 -64 -121q0 -120 64 -120t64 121q0 120 -64 120zM678 728l-384 -754h-87l387 754h84zM361 540q0 -56 -15 -95.5t-40 -58.5t-49.5 -27t-51.5 -8q-70 0 -112 47.5t-42 138.5q0 73 26 121q37 70 128 70q77 0 119 -54q37 -49 37 -134zM835 163
q0 -56 -15.5 -95.5t-41 -58.5t-50 -27t-50.5 -8q-71 0 -112.5 49t-41.5 136q0 22 2.5 43t11.5 49.5t25 49t45.5 35.5t69.5 15q88 0 129 -68q28 -46 28 -120zM680 283q-65 0 -65 -121q0 -120 65 -120q64 0 64 121q0 120 -64 120z" />
    <glyph glyph-name="ampersand" unicode="&#x26;" horiz-adv-x="698" 
d="M520 340l105 -26q-18 -78 -63 -151q37 -41 113 -93l-69 -88q-21 11 -43 27t-33 26t-40 37q-15 -18 -36.5 -34.5t-68.5 -33t-101 -16.5q-115 0 -176.5 65t-61.5 146q0 129 166 212q-75 97 -75 159q0 70 54.5 114t131.5 44q83 0 133 -45.5t50 -111.5q0 -33 -12 -60.5
t-34.5 -49.5t-43 -35.5t-48.5 -29.5q1 -1 25.5 -31.5t54.5 -67t40 -48.5q19 36 32 91zM268 338q-104 -55 -104 -136q0 -48 30.5 -84t86.5 -36q83 0 138 69q-46 52 -151 187zM280 509l37 -43l36 26q49 35 49 82q0 25 -21 47.5t-57 22.5q-31 0 -54 -18.5t-23 -46.5
q0 -30 33 -70z" />
    <glyph glyph-name="quotesingle" unicode="'" horiz-adv-x="208" 
d="M66 462l-24 133v121h124v-121l-23 -133h-77z" />
    <glyph glyph-name="parenleft" unicode="(" horiz-adv-x="333" 
d="M298 -210h-78q-72 101 -117 224q-46 123 -46 247q0 166 81 328q36 73 83 139h78q-31 -59 -48 -96t-40 -99.5t-34 -130.5t-11 -144q0 -227 132 -468z" />
    <glyph glyph-name="parenright" unicode=")" horiz-adv-x="333" 
d="M35 728h78q72 -101 117 -224q46 -127 46 -247q0 -166 -81 -328q-36 -73 -83 -139h-78q31 59 48 96t40 99.5t34 130.5t11 144q0 227 -132 468z" />
    <glyph glyph-name="asterisk" unicode="*" horiz-adv-x="385" 
d="M24 577l25 78q72 -27 114 -53q-11 82 -11 126h78q0 -45 -12 -126q82 37 119 50l24 -78q-64 -17 -123 -26q34 -32 85 -95l-66 -45q-17 25 -67 106q-25 -50 -65 -108l-66 49q48 55 87 93q-74 14 -122 29z" />
    <glyph glyph-name="plus" unicode="+" 
d="M240 110v191h-191v104h191v191h104v-191h191v-104h-191v-191h-104z" />
    <glyph glyph-name="comma" unicode="," horiz-adv-x="281" 
d="M92 0v118h117v-100q0 -27 -2 -44.5t-10.5 -43t-30.5 -46t-57 -34.5l-26 46q31 13 48 35t18 69h-57z" />
    <glyph glyph-name="hyphen" unicode="-" horiz-adv-x="333" 
d="M32 204v111h269v-111h-269z" />
    <glyph glyph-name="period" unicode="." horiz-adv-x="281" 
d="M82 0v118h118v-118h-118z" />
    <glyph glyph-name="slash" unicode="/" horiz-adv-x="281" 
d="M0 -24l195 740h86l-196 -740h-85z" />
    <glyph glyph-name="zero" unicode="0" horiz-adv-x="552" 
d="M43 354q0 365 232 365q234 0 234 -366q0 -365 -233 -365t-233 366zM159 352q0 -62 4.5 -107.5t17 -85t36.5 -60t59 -20.5q37 0 61.5 22t36 66t15.5 90t4 113q0 257 -118 257q-35 0 -59 -21t-36 -61.5t-16.5 -85.5t-4.5 -107z" />
    <glyph glyph-name="one" unicode="1" horiz-adv-x="552" 
d="M382 0h-111v540q-71 -68 -176 -105v103q17 7 40.5 20t56.5 35t62.5 55.5t45.5 70.5h82v-719z" />
    <glyph glyph-name="two" unicode="2" horiz-adv-x="552" 
d="M504 105v-105h-477q1 40 17.5 79.5t46 75t48.5 55t47 44.5q131 117 167.5 162.5t36.5 100.5q0 54 -33.5 82.5t-80.5 28.5q-18 0 -35.5 -4.5t-37.5 -17t-33 -40.5t-14 -68l-112 12q5 54 26 95t46 62t58 33.5t55 15.5t44 3q54 0 96.5 -14.5t67 -36t40.5 -49.5t21.5 -52.5
t5.5 -48.5q0 -34 -11 -66.5t-25.5 -57.5t-43 -56.5t-49.5 -51t-58 -52.5q-102 -89 -127 -129h314z" />
    <glyph glyph-name="three" unicode="3" horiz-adv-x="552" 
d="M40 190l109 13q20 -124 122 -124q57 0 91 40.5t34 94.5q0 55 -33 91t-83 36q-27 0 -65 -10l12 94q52 -3 95 22.5t43 83.5q0 45 -29.5 70.5t-70.5 25.5q-42 0 -72 -28t-38 -85l-106 19q39 186 217 186q93 0 153 -55t60 -130q0 -97 -102 -147v-2q43 -9 72.5 -31.5t41.5 -51
t16.5 -49.5t4.5 -40q0 -98 -71 -161.5t-172 -63.5q-97 0 -158.5 58t-70.5 144z" />
    <glyph glyph-name="four" unicode="4" horiz-adv-x="552" 
d="M317 0v157h-302v101l319 459h94v-459h92v-101h-92v-157h-111zM121 258h196v285h-2z" />
    <glyph glyph-name="five" unicode="5" horiz-adv-x="552" 
d="M43 186l113 11q5 -37 20 -62.5t35.5 -36.5t35.5 -15t30 -4q60 0 94 46t34 108q0 78 -38.5 115t-92.5 37q-73 0 -119 -62l-96 13l70 370h359v-105h-273l-31 -159q55 34 117 34q88 0 154 -63.5t66 -170.5q0 -63 -25.5 -119t-83.5 -95.5t-138 -39.5q-90 0 -155 52t-76 146z
" />
    <glyph glyph-name="six" unicode="6" horiz-adv-x="552" 
d="M502 541l-109 -11q-18 98 -101 98q-129 0 -139 -240l2 -2q53 78 152 78q86 0 147 -65t61 -168q0 -101 -61 -172t-165 -71q-69 0 -121 32.5t-79 79.5q-50 90 -50 239q0 24 1 45t6 62t14.5 74t29 72t45.5 65t68.5 44t94.5 18q19 0 38.5 -2.5t48 -13.5t50.5 -29t41 -52.5
t26 -80.5zM166 235q0 -61 34 -108.5t91 -47.5q58 0 85.5 46.5t27.5 107.5q0 59 -30.5 100.5t-87.5 41.5q-49 0 -84.5 -35.5t-35.5 -104.5z" />
    <glyph glyph-name="seven" unicode="7" horiz-adv-x="552" 
d="M45 602v104h466v-83q-32 -33 -69 -86t-79.5 -132.5t-72.5 -187t-36 -217.5h-111q4 172 79 339.5t156 262.5h-333z" />
    <glyph glyph-name="eight" unicode="8" horiz-adv-x="552" 
d="M169 386v2q-13 4 -26 11.5t-33.5 23.5t-33 45t-12.5 67q0 76 55 130t155 54t156 -54.5t56 -131.5q0 -52 -28 -89.5t-75 -56.5q129 -45 129 -182q0 -93 -64.5 -155t-169.5 -62q-104 0 -170.5 60t-66.5 157q0 36 10 69t40.5 65.5t77.5 46.5zM173 529q0 -47 30 -73.5
t72 -26.5q41 0 71.5 26t30.5 73q0 45 -28.5 72.5t-73.5 27.5t-73.5 -27.5t-28.5 -71.5zM152 209q0 -53 34 -91.5t92 -38.5q50 0 86 34t36 95q0 59 -35.5 95.5t-89.5 36.5q-59 0 -91 -40.5t-32 -90.5z" />
    <glyph glyph-name="nine" unicode="9" horiz-adv-x="552" 
d="M50 166l107 11q3 -15 6 -25.5t13.5 -30.5t31 -31t50.5 -11q90 0 121 110q20 71 20 131h-2q-20 -29 -59 -53.5t-92 -24.5q-85 0 -147 64t-62 171t63 174.5t163 67.5q70 0 120 -32.5t78 -81.5q52 -92 52 -241q0 -23 -0.5 -42.5t-6 -61t-14.5 -74t-28.5 -71.5t-46 -65
t-69.5 -44t-96 -18q-112 0 -163 74q-28 41 -39 104zM387 472q0 63 -32 109.5t-89 46.5q-55 0 -86.5 -44.5t-31.5 -107.5q0 -64 33 -104.5t88 -40.5q57 0 87.5 41t30.5 100z" />
    <glyph glyph-name="colon" unicode=":" horiz-adv-x="302" 
d="M92 0v118h118v-118h-118zM92 400v118h118v-118h-118z" />
    <glyph glyph-name="semicolon" unicode=";" horiz-adv-x="302" 
d="M92 0v118h117v-100q0 -27 -2 -44.5t-10.5 -43t-30.5 -46t-57 -34.5l-26 46q31 13 48 35t18 69h-57zM92 400v118h118v-118h-118z" />
    <glyph glyph-name="less" unicode="&#x3c;" 
d="M533 97l-482 208v99l482 206v-112l-360 -143l360 -147v-111z" />
    <glyph glyph-name="equal" unicode="=" 
d="M535 409h-486v104h486v-104zM535 193h-486v104h486v-104z" />
    <glyph glyph-name="greater" unicode="&#x3e;" 
d="M50 610l482 -208v-99l-482 -206v112l360 143l-360 147v111z" />
    <glyph glyph-name="question" unicode="?" 
d="M340 180h-103q-3 77 14.5 122t91.5 106q32 27 45.5 40t24.5 33t11 44q0 48 -38 80.5t-92 32.5q-50 0 -88 -31.5t-51 -101.5l-107 13q10 95 75.5 151.5t167.5 56.5q104 0 174 -57t70 -144q0 -53 -28 -92.5t-93 -95.5q-48 -41 -61.5 -67.5t-12.5 -89.5zM234 0v118h118v-118
h-118z" />
    <glyph glyph-name="at" unicode="@" horiz-adv-x="1000" 
d="M627 449l15 66h107l-72 -338q-11 -52 -11 -61q0 -13 8.5 -20.5t17.5 -7.5q21 0 50.5 19t59 51.5t50.5 85t21 109.5q0 125 -93 210t-249 85q-197 0 -310 -135q-96 -115 -96 -279q0 -187 130 -284q111 -81 286 -81q240 0 341 139h96q-18 -36 -47.5 -69.5t-79 -69.5
t-129.5 -58t-177 -22q-129 0 -228 36t-157 99t-86.5 140.5t-28.5 168.5q0 67 16.5 133.5t54 132.5t92.5 116.5t139 81.5t186 31q103 0 185 -32.5t132.5 -86.5t76.5 -120t26 -138q0 -141 -93 -247t-214 -106q-28 0 -47 6.5t-27.5 19t-12 21.5t-5.5 22q-65 -69 -144 -69
q-80 0 -130 62.5t-50 147.5q0 122 77 221t180 99q92 0 140 -79zM337 206q0 -54 26 -91t72 -37q68 0 116.5 76.5t48.5 167.5q0 47 -24.5 86.5t-77.5 39.5q-50 0 -88 -42t-55.5 -95.5t-17.5 -104.5z" />
    <glyph glyph-name="A" unicode="A" horiz-adv-x="698" 
d="M3 0l276 716h127l289 -716h-131l-73 191h-293l-70 -191h-125zM302 477l-69 -188h220l-66 177q-26 69 -46 132h-2q-12 -54 -37 -121z" />
    <glyph glyph-name="B" unicode="B" horiz-adv-x="698" 
d="M76 0v716h276q115 0 169 -31q40 -22 64 -63t24 -88q0 -12 -2 -24.5t-10 -38t-30.5 -49.5t-57.5 -41q43 -13 72 -36t41.5 -50t17 -47.5t4.5 -40.5q0 -63 -32.5 -112.5t-84.5 -71.5q-54 -23 -192 -23h-259zM194 322v-221h157q28 0 44 0.5t43.5 6.5t43 16.5t28 33t12.5 53.5
q0 27 -8 47t-24.5 31.5t-32 18.5t-41.5 10t-40.5 3.5t-39.5 0.5h-142zM194 615v-192h127q32 0 49 0.5t45 5.5t42 14.5t25.5 28.5t11.5 47q0 42 -28 70q-18 18 -51.5 22t-105.5 4h-115z" />
    <glyph glyph-name="C" unicode="C" horiz-adv-x="719" 
d="M670 519l-117 -28q-40 136 -173 136q-52 0 -91.5 -19t-61 -46.5t-35 -65.5t-17.5 -69.5t-4 -65.5q0 -115 37 -180q55 -92 168 -92q81 0 125 48t60 120l116 -34q-22 -83 -66 -137q-80 -98 -231 -98q-84 0 -149 30t-104 82t-58.5 117.5t-19.5 141.5q0 171 92.5 270
t243.5 99q222 0 285 -209z" />
    <glyph glyph-name="D" unicode="D" horiz-adv-x="719" 
d="M76 0v716h255q43 0 70 -2t66 -11t71.5 -31.5t59.5 -58.5q74 -98 74 -255q0 -183 -97 -282q-75 -76 -234 -76h-265zM194 615v-514h132q27 0 43.5 1t43 6t43 14.5t36.5 28.5t31 46.5t19 69.5t8 96q0 150 -70 212q-22 19 -52.5 28t-53.5 10.5t-70 1.5h-110z" />
    <glyph glyph-name="E" unicode="E" horiz-adv-x="667" 
d="M76 0v716h524v-101h-406v-191h379v-101h-379v-222h421v-101h-539z" />
    <glyph glyph-name="F" unicode="F" horiz-adv-x="615" 
d="M76 0v716h487v-101h-369v-198h319v-101h-319v-316h-118z" />
    <glyph glyph-name="G" unicode="G" horiz-adv-x="781" 
d="M409 272v101h307v-274q-133 -111 -304 -111q-167 0 -264 103t-97 266q0 49 10 97t35 98.5t64 88.5t102.5 62.5t143.5 24.5q251 0 300 -211l-113 -25q-38 135 -187 135q-55 0 -97.5 -17.5t-67.5 -44.5t-41.5 -63t-22 -68.5t-5.5 -65.5q0 -125 57.5 -202t177.5 -77
q62 0 115.5 23.5t75.5 46.5v113h-189z" />
    <glyph glyph-name="H" unicode="H" horiz-adv-x="719" 
d="M76 0v716h118v-289h331v289h118v-716h-118v326h-331v-326h-118z" />
    <glyph glyph-name="I" unicode="I" horiz-adv-x="281" 
d="M82 0v716h118v-716h-118z" />
    <glyph glyph-name="J" unicode="J" horiz-adv-x="531" 
d="M449 716v-472q0 -23 -0.5 -37.5t-4.5 -44.5t-11.5 -50t-23.5 -45.5t-38.5 -41t-58 -26.5t-80.5 -11q-98 0 -151 53q-56 56 -55 171l109 13q1 -21 2 -33.5t7 -34.5t15.5 -35t28.5 -23t45 -10q28 0 47.5 10t29.5 22.5t15 36t5.5 38t0.5 41.5v479h118z" />
    <glyph glyph-name="K" unicode="K" horiz-adv-x="688" 
d="M76 716h118v-343l310 343h150l-281 -294l307 -422h-149l-238 341l-99 -105v-236h-118v716z" />
    <glyph glyph-name="L" unicode="L" 
d="M76 0v716h118v-615h356v-101h-474z" />
    <glyph glyph-name="M" unicode="M" horiz-adv-x="865" 
d="M609 716h184v-716h-114v627h-2l-190 -627h-110l-190 627h-2v-627h-114v716h193l170 -561h2z" />
    <glyph glyph-name="N" unicode="N" horiz-adv-x="719" 
d="M77 0v716h117l300 -469q28 -46 39 -68l2 2q-3 27 -3 82v453h109v-716h-118l-325 502q-9 13 -14 27l-2 -2q4 -36 4 -51v-476h-109z" />
    <glyph glyph-name="O" unicode="O" horiz-adv-x="781" 
d="M46 360q0 72 20.5 136.5t61 117t108.5 83.5t155 31q161 0 252.5 -103.5t91.5 -266.5q0 -164 -91.5 -267t-254.5 -103q-159 0 -251 103.5t-92 268.5zM168 358q0 -136 65 -202.5t158 -66.5q65 0 112.5 30t72.5 74q37 67 37 167q0 123 -58.5 195t-163.5 72q-93 0 -158 -64.5
t-65 -204.5z" />
    <glyph glyph-name="P" unicode="P" horiz-adv-x="667" 
d="M76 0v716h252q78 0 122 -5.5t78 -25.5q95 -54 95 -183q0 -40 -11 -76.5t-40 -70.5t-73 -52q-54 -22 -163 -22h-142v-281h-118zM194 615v-233h135q23 0 39.5 1t44 7.5t44.5 18t30.5 35.5t13.5 57q0 31 -14 58t-38 39q-23 12 -47.5 14.5t-77.5 2.5h-130z" />
    <glyph glyph-name="Q" unicode="Q" horiz-adv-x="781" 
d="M755 20l-40 -83q-41 14 -63.5 27t-92.5 62q-75 -38 -169 -38q-159 0 -251.5 102.5t-92.5 267.5q0 167 92.5 268.5t252.5 101.5t252 -102t92 -268q0 -94 -26.5 -158t-72.5 -117q62 -42 119 -63zM376 145l31 75q75 -21 136 -70q70 69 70 207q0 126 -59.5 198t-162.5 72
q-38 0 -73.5 -12t-71 -40t-57 -84.5t-21.5 -134.5q0 -132 63.5 -199.5t162.5 -67.5q37 0 73 13q-42 29 -91 43z" />
    <glyph glyph-name="R" unicode="R" horiz-adv-x="719" 
d="M76 0v716h311q102 0 153 -19q56 -21 85.5 -71t29.5 -108q0 -47 -17.5 -84t-40.5 -56.5t-54 -33t-49 -17t-35 -5.5v-2q24 -12 39.5 -22.5t45 -43.5t62.5 -85l107 -169h-144l-100 152q-70 106 -102.5 131.5t-100.5 25.5h-72v-309h-118zM194 615v-209h159q39 0 63.5 2.5
t55 12t46 32t15.5 58.5q0 30 -13 51t-28.5 31t-42.5 15.5t-42 6t-40 0.5h-173z" />
    <glyph glyph-name="S" unicode="S" horiz-adv-x="667" 
d="M41 231l114 10q6 -51 30 -84q49 -68 153 -68q72 0 117 29.5t45 81.5q0 49 -39.5 71t-135.5 45q-27 7 -41 10.5t-42 12t-44.5 16.5t-39.5 20t-36.5 27t-27 33.5t-20 42t-6.5 51.5q0 84 66.5 141.5t188.5 57.5q119 0 194 -54t79 -162l-117 -7q-2 20 -6.5 34.5t-19 38
t-47 36.5t-80.5 13q-60 0 -102.5 -23t-42.5 -68q0 -40 35.5 -61t131.5 -43q34 -8 51.5 -12.5t50.5 -15t52 -20.5t44 -27.5t38 -37.5t23 -49t10 -63q0 -39 -13.5 -74.5t-43.5 -69.5t-87.5 -54.5t-136.5 -20.5q-64 0 -115 15t-83 39t-53.5 57t-31 65t-12.5 67z" />
    <glyph glyph-name="T" unicode="T" horiz-adv-x="615" 
d="M248 0v615h-225v101h568v-101h-225v-615h-118z" />
    <glyph glyph-name="U" unicode="U" horiz-adv-x="719" 
d="M76 716h118v-403q0 -35 1 -53t5 -49.5t14.5 -49t28 -36.5t47 -27.5t69.5 -8.5q47 0 79 13t48.5 31t25.5 51.5t10.5 58t1.5 66.5v407h118v-396q0 -40 -0.5 -61.5t-6 -62t-15.5 -64.5t-30.5 -54.5t-50 -48t-75.5 -29.5t-104 -12t-104 12t-75.5 29t-50.5 47.5t-31 54.5
t-15.5 63.5t-6.5 62t-1 60.5v399z" />
    <glyph glyph-name="V" unicode="V" horiz-adv-x="667" 
d="M664 716l-269 -716h-125l-267 716h128l184 -525q14 -39 19 -62h2q6 27 19 62l185 525h124z" />
    <glyph glyph-name="W" unicode="W" horiz-adv-x="948" 
d="M315 0h-125l-181 716h121l109 -480l15 -78h2q4 28 16 71l133 487h142l113 -427q24 -91 29 -135h2q5 30 17 83l112 479h118l-185 -716h-121l-147 540q-4 14 -11 45h-2l-10 -45z" />
    <glyph glyph-name="X" unicode="X" horiz-adv-x="667" 
d="M3 0l261 373l-233 343h139l136 -206q17 -24 31 -46q9 14 29 43l143 209h133l-237 -342l258 -374h-144l-170 252q-11 15 -16 25l-8 -12t-11 -16l-169 -249h-142z" />
    <glyph glyph-name="Y" unicode="Y" horiz-adv-x="667" 
d="M664 716l-275 -414v-302h-118v302l-269 414h141l153 -248q32 -52 39 -64q10 18 41 67l152 245h136z" />
    <glyph glyph-name="Z" unicode="Z" horiz-adv-x="615" 
d="M21 0v108l372 462q21 27 39 45h-369v101h518v-98l-398 -490q-5 -7 -12 -15t-10 -12h433v-101h-573z" />
    <glyph glyph-name="bracketleft" unicode="[" horiz-adv-x="302" 
d="M68 -200v916h217v-89h-109v-738h109v-89h-217z" />
    <glyph glyph-name="backslash" unicode="\" horiz-adv-x="281" 
d="M281 -24h-85l-196 740h86z" />
    <glyph glyph-name="bracketright" unicode="]" horiz-adv-x="302" 
d="M234 -200h-217v89h109v738h-109v89h217v-916z" />
    <glyph glyph-name="asciicircum" unicode="^" horiz-adv-x="521" 
d="M153 325h-114l178 391h89l176 -391h-113l-109 267z" />
    <glyph glyph-name="underscore" unicode="_" horiz-adv-x="500" 
d="M-6 -125v50h512v-50h-512z" />
    <glyph glyph-name="grave" unicode="`" horiz-adv-x="333" 
d="M233 583h-78l-123 141h134z" />
    <glyph glyph-name="a" unicode="a" horiz-adv-x="552" 
d="M155 360l-104 19q11 31 23.5 53t37 47t68 38t102.5 13q116 0 168 -51q22 -21 30.5 -51.5t8.5 -94.5l-1 -185q1 -93 30 -148h-113q-13 33 -18 61q-76 -73 -174 -73q-82 0 -129.5 41.5t-47.5 109.5q0 37 16 66.5t36 45.5t52.5 28t49.5 15.5t43 7.5q96 13 145 31q2 26 -1 48
q-3 20 -15.5 33.5t-30 19t-30 7.5t-23.5 2q-62 0 -86.5 -20t-36.5 -63zM378 255q-39 -15 -123 -29q-22 -4 -34.5 -7t-32 -11.5t-29 -24t-9.5 -36.5q0 -28 22 -52.5t72 -24.5q36 0 67.5 16.5t49.5 45.5q12 20 14.5 43t2.5 80z" />
    <glyph glyph-name="b" unicode="b" 
d="M173 0h-104v716h111v-257h2q51 71 145 71q98 0 158.5 -72t60.5 -195q0 -134 -67 -204.5t-153 -70.5q-97 0 -151 82h-2v-70zM176 255q0 -53 14 -91t36 -55t41.5 -23.5t38.5 -6.5q50 0 88 42.5t38 137.5q0 29 -5 57t-17.5 58.5t-39.5 49.5t-65 19q-82 0 -113 -85
q-16 -44 -16 -103z" />
    <glyph glyph-name="c" unicode="c" horiz-adv-x="531" 
d="M404 194l109 -17q-15 -79 -71.5 -134t-157.5 -55q-45 0 -81.5 11.5t-61 29.5t-43 43t-29 49.5t-16.5 52t-8 47t-2 38.5q0 119 61.5 195t183.5 76q117 0 175 -73q32 -41 45 -102l-108 -18q-4 18 -8.5 29.5t-16 31.5t-33.5 30.5t-52 10.5q-42 0 -71 -19.5t-41 -50.5
t-16.5 -55.5t-4.5 -48.5q0 -29 4.5 -56t16.5 -59t40 -51.5t69 -19.5q34 0 58 12.5t36 35.5t16 36t7 31z" />
    <glyph glyph-name="d" unicode="d" 
d="M514 716v-716h-104v71h-2q-52 -83 -152 -83q-98 0 -158.5 77.5t-60.5 192.5q0 130 61 201t156 71q93 0 147 -71h2v257h111zM280 443q-31 0 -54.5 -11t-36.5 -30.5t-21.5 -38.5t-11.5 -43t-4 -35t-1 -24q0 -55 13.5 -94t35.5 -56.5t41 -24.5t39 -7q19 0 38 6.5t40.5 23.5
t35 54.5t13.5 91.5q0 89 -34.5 138.5t-92.5 49.5z" />
    <glyph glyph-name="e" unicode="e" horiz-adv-x="552" 
d="M515 228h-366q2 -68 38 -110.5t98 -42.5q83 0 113 91l112 -17q-22 -74 -79 -117.5t-149 -43.5q-58 0 -103 18t-71.5 45.5t-43.5 64.5t-23 71t-6 69q0 52 13.5 99t41 87t75 64t108.5 24q124 0 184.5 -83t57.5 -219zM149 307h252q-1 22 -6.5 41.5t-17.5 43t-38 37.5t-62 14
q-38 0 -65.5 -17t-39.5 -43.5t-17 -43.5t-6 -32z" />
    <glyph glyph-name="f" unicode="f" horiz-adv-x="302" 
d="M196 518h102v-87h-102v-431h-111v431h-76v87h76v48q0 24 1 39t9 41t23 41.5t45.5 28t73.5 12.5q45 0 97 -13l-16 -86q-27 6 -59 6q-22 0 -36 -6.5t-19.5 -19.5t-6.5 -22t-1 -26v-43z" />
    <glyph glyph-name="g" unicode="g" 
d="M55 -39l119 -15q2 -12 5 -20.5t12 -21.5t29.5 -20t50.5 -7q32 0 67.5 11.5t51.5 40.5q11 21 13.5 44t2.5 102h-2q-57 -75 -150 -75q-103 0 -160 78.5t-57 183.5q0 121 60 194.5t161 73.5q98 0 154 -79h2v67h103v-456q0 -145 -43 -197q-61 -75 -189 -75q-31 0 -58 3
t-61 13.5t-58 28.5t-39.5 50.5t-13.5 75.5zM278 443q-68 0 -97.5 -54.5t-29.5 -126.5q0 -73 32 -122t95 -49q55 0 91 39q41 40 41 141q0 28 -6 55t-19.5 55t-41 45t-65.5 17z" />
    <glyph glyph-name="h" unicode="h" 
d="M69 0v716h111v-260q63 74 157 74q44 0 86.5 -17t63.5 -52q28 -47 28 -144v-317h-111v303q0 23 -0.5 36t-5.5 35.5t-15 34.5t-29.5 22t-47.5 10q-33 0 -62 -15.5t-43 -39.5q-21 -40 -21 -114v-272h-111z" />
    <glyph glyph-name="i" unicode="i" horiz-adv-x="250" 
d="M69 0v518h111v-518h-111zM69 603v113h111v-113h-111z" />
    <glyph glyph-name="j" unicode="j" horiz-adv-x="250" 
d="M70 -3v521h111v-523q0 -27 -0.5 -41.5t-3 -40t-7.5 -39.5t-14.5 -32.5t-24 -28t-36.5 -16.5t-50 -7q-41 0 -88 11l20 95q30 -6 40 -6q16 0 26 5.5t15.5 12t8 23t3 28.5t0.5 38zM70 603v113h111v-113h-111z" />
    <glyph glyph-name="k" unicode="k" horiz-adv-x="531" 
d="M69 0v716h111v-395l186 197h140l-189 -190l205 -328h-127l-152 250l-63 -63v-187h-111z" />
    <glyph glyph-name="l" unicode="l" horiz-adv-x="250" 
d="M69 0v716h111v-716h-111z" />
    <glyph glyph-name="m" unicode="m" horiz-adv-x="854" 
d="M62 0v518h101v-71h2q57 83 158 83q108 0 146 -87q60 87 161 87q163 0 163 -185v-345h-111v313q0 22 -0.5 34.5t-5 33t-12.5 31.5t-25 20t-41 9q-29 0 -55.5 -15t-38.5 -38q-21 -40 -21 -111v-277h-111v312q0 27 -1.5 43t-8.5 39t-25 35t-46 12q-31 0 -58 -15t-39 -37
q-21 -41 -21 -128v-261h-111z" />
    <glyph glyph-name="n" unicode="n" 
d="M69 0v518h102v-74h2q27 41 71 63.5t95 22.5q48 0 90.5 -20t60.5 -54q17 -32 21 -61.5t4 -91.5v-303h-111v291q0 26 -0.5 41t-5.5 39t-15 36.5t-29.5 23t-47.5 10.5q-34 0 -63.5 -16.5t-41.5 -41.5q-21 -42 -21 -122v-261h-111z" />
    <glyph glyph-name="o" unicode="o" 
d="M37 253q0 136 73.5 206.5t181.5 70.5q114 0 184 -74.5t70 -195.5q0 -123 -71.5 -197.5t-183.5 -74.5q-48 0 -92 15.5t-81 46.5t-59 83.5t-22 119.5zM151 259q0 -94 43 -137t98 -43q22 0 43.5 7.5t44.5 26t37.5 57t14.5 92.5q0 86 -40.5 131.5t-99.5 45.5q-56 0 -98.5 -43
t-42.5 -137z" />
    <glyph glyph-name="p" unicode="p" 
d="M69 -198v716h102v-71h2q50 83 154 83q101 0 160 -75t59 -192q0 -129 -65 -202t-157 -73t-142 71h-2v-257h-111zM174 254q0 -88 38.5 -131.5t90.5 -43.5q42 0 70 21t39.5 54.5t15.5 58t4 49.5q0 92 -37 136.5t-90 44.5q-56 0 -93.5 -48t-37.5 -141z" />
    <glyph glyph-name="q" unicode="q" 
d="M514 -198h-111v257h-2q-24 -34 -62 -52.5t-82 -18.5q-92 0 -155 75.5t-63 200.5t62 195.5t156 70.5q106 0 153 -84h2v72h102v-716zM410 265q0 88 -37 133t-92 45q-19 0 -37.5 -6.5t-40.5 -23t-36 -55.5t-14 -95q0 -84 34 -134t94 -50q53 0 91 44.5t38 141.5z" />
    <glyph glyph-name="r" unicode="r" horiz-adv-x="354" 
d="M174 219v-219h-111v518h102v-76h2q45 88 111 88q46 0 93 -27l-36 -99q-37 21 -68 21q-93 0 -93 -206z" />
    <glyph glyph-name="s" unicode="s" horiz-adv-x="531" 
d="M474 388l-106 -18q-13 75 -109 75q-21 0 -41.5 -3.5t-40 -17t-19.5 -35.5q0 -24 25.5 -38t96.5 -30q43 -10 70 -17.5t57 -21t47 -29t28 -39t11 -54.5q0 -69 -55.5 -120.5t-167.5 -51.5q-107 0 -163.5 48t-69.5 116l110 17q16 -96 122 -96q12 0 25 1.5t35 7.5t36 22t14 40
q0 21 -15.5 34.5t-55.5 22.5q-57 13 -89 22t-68.5 23.5t-54.5 30.5t-30.5 41t-12.5 57q0 73 56.5 114t138.5 41q199 0 226 -142z" />
    <glyph glyph-name="t" unicode="t" horiz-adv-x="302" 
d="M190 701v-183h91v-87h-91v-258q0 -27 0.5 -38.5t4.5 -25t12 -18t23 -4.5q23 0 50 9l12 -91q-40 -14 -83 -14q-38 0 -63.5 10t-38.5 23t-19.5 40.5t-7.5 46t-1 56.5v264h-64v87h64v117z" />
    <glyph glyph-name="u" unicode="u" 
d="M511 0h-101v77h-2q-60 -89 -166 -89q-47 0 -89.5 20.5t-60.5 53.5q-25 48 -25 132v324h111v-263q0 -105 17 -134q25 -42 81 -42q34 0 63 16.5t41 39.5q20 41 20 134v249h111v-518z" />
    <glyph glyph-name="v" unicode="v" horiz-adv-x="531" 
d="M518 518l-201 -518h-102l-203 518h117l105 -288q26 -79 30 -96h2q9 34 30 92l108 292h114z" />
    <glyph glyph-name="w" unicode="w" horiz-adv-x="750" 
d="M166 0l-161 518h111l89 -318q12 -37 15 -59h2q5 26 14 57l85 320h110l82 -319q8 -33 13 -58h2q7 33 14 59l94 318h109l-164 -518h-110l-98 370h-2q-5 -28 -11 -50l-83 -320h-111z" />
    <glyph glyph-name="x" unicode="x" horiz-adv-x="531" 
d="M10 0l188 268l-177 250h137l86 -131q5 -8 19 -31l112 162h132l-178 -244l193 -274h-137l-106 161q-4 6 -8 13t-7 11q-12 -19 -17 -26l-105 -159h-132z" />
    <glyph glyph-name="y" unicode="y" horiz-adv-x="531" 
d="M15 518h119l134 -386h2l134 386h113l-190 -514q-17 -46 -25 -66.5t-22.5 -51.5t-26 -43.5t-29.5 -27.5t-40 -20t-51 -5q-42 0 -72 9l-11 94q28 -7 55 -7q42 0 63.5 23t43.5 90z" />
    <glyph glyph-name="z" unicode="z" horiz-adv-x="500" 
d="M19 0v88l267 306q28 31 33 36q-35 -3 -82 -3h-198v91h426v-76l-242 -282q-10 -12 -32 -35.5t-33 -35.5l2 -2q41 4 93 4h227v-91h-461z" />
    <glyph glyph-name="braceleft" unicode="{" horiz-adv-x="365" 
d="M339 728v-95q-37 0 -51 -1.5t-27.5 -15t-17 -38t-6.5 -76.5v-59q0 -47 -9.5 -81.5t-27 -55t-29 -29.5t-29.5 -18q62 -30 79.5 -87t17.5 -185q0 -67 17 -84.5t83 -17.5v-95q-39 0 -58 1t-46 7t-45 20t-31 38q-23 41 -23 161q0 42 -1 65.5t-6.5 51t-16.5 41t-31 23.5
t-49 12v98q29 1 48 10.5t30.5 23t17 39t7 49.5t1.5 65q0 82 8 123.5t36 69.5q27 27 59 33.5t100 6.5z" />
    <glyph glyph-name="bar" unicode="|" horiz-adv-x="271" 
d="M90 -198v914h91v-914h-91z" />
    <glyph glyph-name="braceright" unicode="}" horiz-adv-x="365" 
d="M26 -210v95q37 0 51 1.5t27.5 15t17 38t6.5 76.5v59q0 47 9.5 81.5t27 55t29 29.5t29.5 18q-62 30 -79.5 87t-17.5 185q0 67 -17 84.5t-83 17.5v95q39 0 58 -1t46 -7t45 -20t31 -38q23 -41 23 -161q0 -42 1 -65.5t6.5 -51t16.5 -41t31 -23.5t49 -12v-98q-29 -1 -48 -10.5
t-30.5 -23t-17 -39t-7 -49.5t-1.5 -65q0 -82 -8 -123.5t-36 -69.5q-27 -27 -59 -33.5t-100 -6.5z" />
    <glyph glyph-name="asciitilde" unicode="~" 
d="M37 265v113q62 62 141 62q56 0 147 -39q64 -27 89 -27q68 0 132 69v-117q-62 -60 -141 -60q-42 0 -98 23q-69 28 -92 35.5t-48 7.5q-62 0 -130 -67z" />
    <glyph glyph-name="uni00A0" unicode="&#xa0;" horiz-adv-x="276" 
 />
    <glyph glyph-name="exclamdown" unicode="&#xa1;" horiz-adv-x="302" 
d="M211 518v-118h-118v118h118zM185 337l31 -372v-163h-127v163l30 372h66z" />
    <glyph glyph-name="cent" unicode="&#xa2;" horiz-adv-x="552" 
d="M344 527l56 186l56 -16l-54 -185q55 -26 85 -76t31 -81l-108 -18q-12 49 -38 76l-98 -331q10 -3 23 -3q52 0 81 31t36 84l109 -17q-12 -80 -71 -134.5t-157 -54.5q-32 0 -47 3l-57 -189l-57 16l56 189q-20 7 -41 24t-44 45.5t-37.5 75.5t-14.5 104q0 124 62.5 199
t185.5 75q27 0 43 -3zM220 107l98 330q-49 5 -82.5 -13.5t-46.5 -51.5t-17.5 -56.5t-4.5 -46.5q0 -119 53 -162z" />
    <glyph glyph-name="sterling" unicode="&#xa3;" horiz-adv-x="552" 
d="M55 -12l-45 99q107 73 107 180q0 22 -4 48h-99v87h76q-22 73 -22 118q0 101 66.5 154.5t158.5 53.5q86 0 145.5 -47t73.5 -139l-109 -16q-8 57 -39.5 84t-73.5 27q-52 0 -81 -32.5t-29 -71.5q0 -53 26 -131h153v-87h-133q3 -12 3 -27q0 -104 -80 -177l2 -2q41 9 75 9
q31 0 122 -21q23 -5 45 -5q50 0 102 27l42 -96q-61 -35 -133 -35q-39 0 -149 32q-37 11 -72 11q-67 0 -128 -43z" />
    <glyph glyph-name="currency" unicode="&#xa4;" horiz-adv-x="552" 
d="M96 465l-67 65l68 72l67 -68q50 32 111 32q59 0 112 -32l67 67l68 -69l-66 -66q31 -52 31 -111q0 -57 -31 -111l67 -66l-68 -70l-68 67q-53 -32 -110 -32q-59 0 -112 32l-66 -66l-69 69l66 66q-32 52 -32 112q0 59 32 109zM276 468q-47 0 -80.5 -33t-33.5 -80t33.5 -80.5
t80.5 -33.5t80 33.5t33 80.5t-33 80t-80 33z" />
    <glyph glyph-name="yen" unicode="&#xa5;" horiz-adv-x="552" 
d="M524 233v-87h-193v-146h-111v146h-192v87h192v67h-192v87h148l-176 329h122l121 -231q27 -51 31 -73h2q7 25 33 75l117 229h126l-177 -329h149v-87h-193v-67h193z" />
    <glyph glyph-name="brokenbar" unicode="&#xa6;" horiz-adv-x="271" 
d="M181 716v-380h-91v380h91zM181 182v-380h-91v380h91z" />
    <glyph glyph-name="section" unicode="&#xa7;" horiz-adv-x="552" 
d="M65 -34l110 15q22 -104 108 -104q45 0 68.5 22.5t23.5 51.5q0 23 -17.5 42t-72.5 56q-78 50 -137 90q-31 21 -50.5 38t-40.5 54t-21 80q0 50 28.5 89t72.5 57q-57 55 -57 116q0 64 50.5 109.5t135.5 45.5q90 0 145 -43t66 -124l-112 -12q-2 17 -5 27t-12 28t-27.5 27.5
t-46.5 9.5q-34 0 -58.5 -18t-24.5 -46q0 -30 27.5 -54t115.5 -79q50 -31 75.5 -49t54.5 -45t40.5 -55t11.5 -64q0 -32 -10 -57.5t-29 -43.5t-30 -26t-30 -19q26 -22 47.5 -56.5t21.5 -72.5q0 -73 -55 -119.5t-147 -46.5q-91 0 -149.5 46.5t-69.5 129.5zM195 409
q-58 -34 -58 -82q0 -32 23.5 -57.5t67.5 -53.5q121 -79 130 -86q57 37 57 82q0 41 -68 92q-7 5 -72.5 50t-79.5 55z" />
    <glyph glyph-name="dieresis" unicode="&#xa8;" horiz-adv-x="333" 
d="M17 616v108h104v-108h-104zM212 616v108h104v-108h-104z" />
    <glyph glyph-name="copyright" unicode="&#xa9;" horiz-adv-x="740" 
d="M540 447l-68 -16q-29 72 -99 72q-35 0 -59.5 -15.5t-36 -40t-16 -46t-4.5 -41.5q0 -15 1.5 -30t8 -38t17.5 -40t32.5 -29.5t50.5 -12.5q84 0 108 89l69 -22q-17 -65 -64 -97.5t-108 -32.5q-86 0 -138 56.5t-52 145.5q0 111 55 163t138 52q127 0 165 -117zM370 728
q153 0 262 -108.5t109 -262.5q0 -153 -108.5 -262t-262.5 -109t-262.5 108.5t-108.5 262.5q0 155 109 263t262 108zM370 661q-125 0 -214.5 -88.5t-89.5 -215.5q0 -126 89.5 -215t214.5 -89t214.5 89t89.5 215q0 127 -89.5 215.5t-214.5 88.5z" />
    <glyph glyph-name="ordfeminine" unicode="&#xaa;" horiz-adv-x="375" 
d="M113 610l-79 18q18 100 155 100q76 0 119 -38q26 -23 26 -121q0 -139 1 -149q3 -29 15 -48h-84q-7 16 -11 39q-52 -47 -117 -47q-47 0 -82.5 26.5t-35.5 79.5q0 29 11.5 50t32 31.5t34 15t33.5 7.5q87 15 116 24q-1 17 -2 25t-6 19.5t-18.5 16t-34.5 4.5
q-36 0 -51.5 -13.5t-21.5 -39.5zM247 537q-7 -3 -94 -20q-46 -11 -46 -44q0 -18 15.5 -31t40.5 -13q24 0 44.5 12t28.5 29q11 22 11 67z" />
    <glyph glyph-name="guillemotleft" unicode="&#xab;" horiz-adv-x="552" 
d="M403 480h89l-128 -222l128 -223h-89l-154 223zM212 480h89l-128 -222l128 -223h-89l-154 223z" />
    <glyph glyph-name="logicalnot" unicode="&#xac;" 
d="M535 193h-104v216h-382v104h486v-320z" />
    <glyph glyph-name="uni00AD" unicode="&#xad;" horiz-adv-x="333" 
d="M32 204v111h269v-111h-269z" />
    <glyph glyph-name="registered" unicode="&#xae;" horiz-adv-x="740" 
d="M205 155v397h110q74 0 100.5 -2.5t50.5 -15.5q21 -11 36.5 -36.5t15.5 -55.5q0 -35 -25 -69.5t-85 -41.5v-2q22 -7 39 -24.5t49 -70.5l48 -79h-88l-35 63q-37 67 -58.5 85t-55.5 18h-30v-166h-72zM277 494v-115h56q24 0 37.5 1t33 6t29 17.5t9.5 33.5q0 20 -9 32.5
t-28.5 17.5t-34 6t-40.5 1h-53zM370 728q153 0 262 -108t109 -263q0 -153 -108.5 -262t-262.5 -109t-262.5 108.5t-108.5 262.5q0 155 109 263t262 108zM370 661q-125 0 -214.5 -88.5t-89.5 -215.5q0 -126 89 -215t215 -89t215 89t89 215q0 127 -89 215.5t-215 88.5z" />
    <glyph glyph-name="macron" unicode="&#xaf;" horiz-adv-x="333" 
d="M12 611v81h309v-81h-309z" />
    <glyph glyph-name="degree" unicode="&#xb0;" horiz-adv-x="396" 
d="M198 728q60 0 102.5 -42.5t42.5 -102.5t-42.5 -102.5t-102.5 -42.5t-102.5 42.5t-42.5 102.5t42.5 102.5t102.5 42.5zM198 662q-32 0 -55.5 -23t-23.5 -56q0 -32 23 -55.5t56 -23.5t56 23.5t23 55.5q0 33 -23.5 56t-55.5 23z" />
    <glyph glyph-name="plusminus" unicode="&#xb1;" 
d="M240 154v191h-191v104h191v191h104v-191h191v-104h-191v-191h-104zM535 0h-486v104h486v-104z" />
    <glyph glyph-name="two.superior" unicode="&#xb2;" horiz-adv-x="333" 
d="M104 606l-82 7q4 20 9.5 34t20 34.5t45 32t74.5 11.5q75 0 107.5 -31.5t32.5 -71.5q0 -39 -25 -72t-80 -73q-51 -37 -65 -53h172v-67h-301q7 61 82 125q5 4 50.5 38.5t53.5 41.5q29 27 29 54q0 23 -17 34t-40 11q-34 0 -47 -13.5t-19 -41.5z" />
    <glyph glyph-name="three.superior" unicode="&#xb3;" horiz-adv-x="333" 
d="M18 458l80 9q3 -14 6.5 -23.5t19 -20t39.5 -10.5q29 0 47.5 17t18.5 42q0 29 -20.5 40.5t-40.5 11.5q-3 0 -39 -4l11 60q72 0 72 45q0 19 -14.5 28.5t-35.5 9.5q-16 0 -27.5 -4.5t-18 -13.5t-9 -14.5t-5.5 -16.5l-78 12q6 19 12 31t20.5 30.5t41.5 28t64 9.5
q67 0 100.5 -28.5t33.5 -66.5q0 -54 -58 -74v-2q13 -3 27 -9t31.5 -27.5t17.5 -52.5q0 -53 -43.5 -84.5t-104.5 -31.5q-130 0 -148 109z" />
    <glyph glyph-name="acute" unicode="&#xb4;" horiz-adv-x="333" 
d="M178 583h-78l67 141h134z" />
    <glyph glyph-name="mu" unicode="&#xb5;" 
d="M514 518v-518h-101v62h-2q-39 -74 -118 -74q-31 0 -54.5 12t-33.5 24.5t-22 32.5h-2v-256h-111v717h111v-226q0 -104 12 -139q12 -34 37.5 -52.5t58.5 -18.5q35 0 62 19.5t40 52.5q12 31 12 136v228h111z" />
    <glyph glyph-name="paragraph" unicode="&#xb6;" horiz-adv-x="542" 
d="M193 -198v511q-57 4 -98 24.5t-61 52t-28.5 61t-8.5 60.5q0 51 22.5 100t70.5 74q28 15 55 22t44.5 8t52.5 1h301v-104h-63v-810h-98v810h-91v-810h-98z" />
    <glyph glyph-name="periodcentered" unicode="&#xb7;" horiz-adv-x="281" 
d="M82 294v118h118v-118h-118z" />
    <glyph glyph-name="cedilla" unicode="&#xb8;" horiz-adv-x="333" 
d="M36 -198l3 57q46 -4 71 -4q7 0 15 1t24.5 4t26.5 13t10 24q0 20 -21.5 28t-42.5 8q-22 0 -35 -5l20 75h71l-11 -30q50 3 78 -21t28 -59q0 -15 -6 -29.5t-22 -31.5t-51 -27t-85 -10q-45 0 -73 7z" />
    <glyph glyph-name="one.superior" unicode="&#xb9;" horiz-adv-x="333" 
d="M237 357h-81v261q-52 -37 -108 -52v67q28 9 66.5 32.5t58.5 59.5h64v-368z" />
    <glyph glyph-name="ordmasculine" unicode="&#xba;" horiz-adv-x="375" 
d="M23 545q0 83 43.5 133t120.5 50q80 0 122.5 -52t42.5 -131q0 -82 -44 -132t-121 -50q-78 0 -121 51t-43 131zM110 547q0 -113 77 -113q27 0 44.5 13.5t24 36t8 34.5t1.5 25q0 17 -2.5 33t-9.5 36t-24 32.5t-42 12.5q-77 0 -77 -110z" />
    <glyph glyph-name="guillemotright" unicode="&#xbb;" horiz-adv-x="552" 
d="M149 35h-89l128 222l-128 223h89l154 -223zM340 35h-89l128 222l-128 223h89l154 -223z" />
    <glyph glyph-name="onequarter" unicode="&#xbc;" horiz-adv-x="833" 
d="M770 -18h-78v74h-182v64l192 230h68v-233h51v-61h-51v-74zM590 117h102v120zM237 357h-81v261q-52 -37 -108 -52v67q28 9 66.5 32.5t58.5 59.5h64v-368zM220 -27h-77l484 753h77z" />
    <glyph glyph-name="onehalf" unicode="&#xbd;" horiz-adv-x="833" 
d="M604 231l-82 7q4 20 9.5 34t20 34.5t45 32t74.5 11.5q75 0 107.5 -31.5t32.5 -71.5q0 -39 -25 -72t-80 -73q-51 -37 -65 -53h172v-67h-301q7 61 82 125q5 4 50.5 38.5t53.5 41.5q29 27 29 54q0 23 -17 34t-40 11q-34 0 -47 -13.5t-19 -41.5zM237 357h-81v261
q-52 -37 -108 -52v67q28 9 66.5 32.5t58.5 59.5h64v-368zM220 -27h-77l484 753h77z" />
    <glyph glyph-name="threequarters" unicode="&#xbe;" horiz-adv-x="833" 
d="M770 -18h-78v74h-182v64l192 230h68v-233h51v-61h-51v-74zM590 117h102v120zM18 458l80 9q3 -14 6.5 -23.5t19 -20t39.5 -10.5q29 0 47.5 17t18.5 42q0 29 -20.5 40.5t-40.5 11.5q-3 0 -39 -4l11 60q72 0 72 45q0 19 -14.5 28.5t-35.5 9.5q-16 0 -27.5 -4.5t-18 -13.5
t-9 -14.5t-5.5 -16.5l-78 12q6 19 12 31t20.5 30.5t41.5 28t64 9.5q67 0 100.5 -28.5t33.5 -66.5q0 -54 -58 -74v-2q13 -3 27 -9t31.5 -27.5t17.5 -52.5q0 -53 -43.5 -84.5t-104.5 -31.5q-130 0 -148 109zM220 -27h-77l484 753h77z" />
    <glyph glyph-name="questiondown" unicode="&#xbf;" 
d="M243 338h103q3 -77 -14.5 -122t-91.5 -106q-32 -27 -45.5 -40t-24.5 -33t-11 -44q0 -48 38 -80.5t92 -32.5q50 0 88 31.5t51 101.5l107 -13q-10 -95 -75.5 -151.5t-167.5 -56.5q-104 0 -174 57t-70 144q0 53 28 92.5t93 95.5q48 41 61.5 67.5t12.5 89.5zM349 518v-118
h-118v118h118z" />
    <glyph glyph-name="Agrave" unicode="&#xc0;" horiz-adv-x="698" 
d="M3 0l276 716h127l289 -716h-131l-73 191h-293l-70 -191h-125zM302 477l-69 -188h220l-66 177q-26 69 -46 132h-2q-12 -54 -37 -121zM416 765h-78l-123 141h134z" />
    <glyph glyph-name="Aacute" unicode="&#xc1;" horiz-adv-x="698" 
d="M3 0l276 716h127l289 -716h-131l-73 191h-293l-70 -191h-125zM302 477l-69 -188h220l-66 177q-26 69 -46 132h-2q-12 -54 -37 -121zM361 765h-78l67 141h134z" />
    <glyph glyph-name="Acircumflex" unicode="&#xc2;" horiz-adv-x="698" 
d="M3 0l276 716h127l289 -716h-131l-73 191h-293l-70 -191h-125zM302 477l-69 -188h220l-66 177q-26 69 -46 132h-2q-12 -54 -37 -121zM349 844l-54 -79h-105l104 141h109l106 -141h-105z" />
    <glyph glyph-name="Atilde" unicode="&#xc3;" horiz-adv-x="698" 
d="M3 0l276 716h127l289 -716h-131l-73 191h-293l-70 -191h-125zM302 477l-69 -188h220l-66 177q-26 69 -46 132h-2q-12 -54 -37 -121zM451 892h64q-6 -116 -93 -116q-29 0 -74 21q-47 22 -66 22q-35 0 -35 -45h-64q-2 60 26.5 88.5t67.5 28.5q31 0 86 -26q34 -15 49 -15
q33 0 39 42z" />
    <glyph glyph-name="Adieresis" unicode="&#xc4;" horiz-adv-x="698" 
d="M3 0l276 716h127l289 -716h-131l-73 191h-293l-70 -191h-125zM302 477l-69 -188h220l-66 177q-26 69 -46 132h-2q-12 -54 -37 -121zM200 798v108h104v-108h-104zM395 798v108h104v-108h-104z" />
    <glyph glyph-name="Aring" unicode="&#xc5;" horiz-adv-x="698" 
d="M3 0l276 716h127l289 -716h-131l-73 191h-293l-70 -191h-125zM302 477l-69 -188h220l-66 177q-26 69 -46 132h-2q-12 -54 -37 -121zM350 895q-20 0 -34.5 -14.5t-14.5 -34.5t14.5 -34.5t34.5 -14.5t34.5 14.5t14.5 34.5t-14.5 34.5t-34.5 14.5zM350 938q38 0 65 -27
t27 -65t-27 -65t-65 -27t-65 27t-27 65t27 65t65 27z" />
    <glyph glyph-name="AE" unicode="&#xc6;" horiz-adv-x="1000" 
d="M-19 0l339 716h615v-101h-357v-192h331v-101h-331v-221h370v-101h-488v189h-264l-86 -189h-129zM396 620l-153 -328h217v328h-64z" />
    <glyph glyph-name="Ccedilla" unicode="&#xc7;" horiz-adv-x="719" 
d="M389 -12l-6 -15q50 3 78.5 -21t28.5 -59q0 -15 -6 -29.5t-22 -31.5t-51 -27t-85 -10q-47 0 -73 7l3 57q46 -4 70 -4q7 0 15.5 1t25 4t26.5 12.5t10 24.5q0 20 -21.5 28t-42.5 8q-23 0 -36 -5l18 64q-63 11 -112.5 39.5t-79 65.5t-48 83.5t-25.5 88t-7 84.5q0 94 26.5 167
t73.5 117.5t106.5 67.5t129.5 23q56 0 102 -14t75.5 -35.5t52.5 -51t35 -55t20 -53.5l-116 -28q-8 24 -17 41.5t-28 42t-52 38.5t-77 14q-42 0 -76.5 -13t-55.5 -31.5t-37 -46.5t-23 -51.5t-11.5 -52.5t-5 -43t-0.5 -30q0 -113 37 -177q24 -42 68.5 -67.5t99.5 -25.5
q83 0 126.5 49.5t58.5 118.5l117 -34q-7 -27 -16 -51t-31.5 -59.5t-52 -60.5t-79 -44t-110.5 -20z" />
    <glyph glyph-name="Egrave" unicode="&#xc8;" horiz-adv-x="667" 
d="M76 0v716h524v-101h-406v-191h379v-101h-379v-222h421v-101h-539zM400 765h-78l-123 141h134z" />
    <glyph glyph-name="Eacute" unicode="&#xc9;" horiz-adv-x="667" 
d="M76 0v716h524v-101h-406v-191h379v-101h-379v-222h421v-101h-539zM345 765h-78l67 141h134z" />
    <glyph glyph-name="Ecircumflex" unicode="&#xca;" horiz-adv-x="667" 
d="M76 0v716h524v-101h-406v-191h379v-101h-379v-222h421v-101h-539zM333 844l-54 -79h-105l104 141h109l106 -141h-105z" />
    <glyph glyph-name="Edieresis" unicode="&#xcb;" horiz-adv-x="667" 
d="M76 0v716h524v-101h-406v-191h379v-101h-379v-222h421v-101h-539zM184 798v108h104v-108h-104zM379 798v108h104v-108h-104z" />
    <glyph glyph-name="Igrave" unicode="&#xcc;" horiz-adv-x="281" 
d="M82 0v716h118v-716h-118zM207 765h-78l-123 141h134z" />
    <glyph glyph-name="Iacute" unicode="&#xcd;" horiz-adv-x="281" 
d="M82 0v716h118v-716h-118zM152 765h-78l67 141h134z" />
    <glyph glyph-name="Icircumflex" unicode="&#xce;" horiz-adv-x="281" 
d="M82 0v716h118v-716h-118zM140 844l-54 -79h-105l104 141h109l106 -141h-105z" />
    <glyph glyph-name="Idieresis" unicode="&#xcf;" horiz-adv-x="281" 
d="M82 0v716h118v-716h-118zM-9 798v108h104v-108h-104zM186 798v108h104v-108h-104z" />
    <glyph glyph-name="Eth" unicode="&#xd0;" horiz-adv-x="719" 
d="M76 0v319h-77v77h77v320h255q37 0 59 -1t59.5 -8.5t63.5 -21t56 -41.5t53 -68q50 -89 50 -218q0 -182 -95 -280q-75 -78 -236 -78h-265zM194 319v-218h132q28 0 43.5 1t42.5 6t43.5 14.5t36.5 28.5t31 46t19 69t8 96q0 140 -61 204q-22 23 -54 34.5t-56.5 13t-74.5 1.5
h-110v-219h177v-77h-177z" />
    <glyph glyph-name="Ntilde" unicode="&#xd1;" horiz-adv-x="719" 
d="M77 0v716h117l300 -469q28 -46 39 -68l2 2q-3 27 -3 82v453h109v-716h-118l-325 502q-9 13 -14 27l-2 -2q4 -36 4 -51v-476h-109zM461 892h64q-6 -116 -93 -116q-29 0 -74 21q-47 22 -66 22q-35 0 -35 -45h-64q-2 60 26.5 88.5t67.5 28.5q31 0 86 -26q34 -15 49 -15
q33 0 39 42z" />
    <glyph glyph-name="Ograve" unicode="&#xd2;" horiz-adv-x="781" 
d="M46 360q0 72 20.5 136.5t61 117t108.5 83.5t155 31q161 0 252.5 -103.5t91.5 -266.5q0 -164 -91.5 -267t-254.5 -103q-159 0 -251 103.5t-92 268.5zM168 358q0 -136 65 -202.5t158 -66.5q65 0 112.5 30t72.5 74q37 67 37 167q0 123 -58.5 195t-163.5 72q-93 0 -158 -64.5
t-65 -204.5zM457 765h-78l-123 141h134z" />
    <glyph glyph-name="Oacute" unicode="&#xd3;" horiz-adv-x="781" 
d="M46 360q0 72 20.5 136.5t61 117t108.5 83.5t155 31q161 0 252.5 -103.5t91.5 -266.5q0 -164 -91.5 -267t-254.5 -103q-159 0 -251 103.5t-92 268.5zM168 358q0 -136 65 -202.5t158 -66.5q65 0 112.5 30t72.5 74q37 67 37 167q0 123 -58.5 195t-163.5 72q-93 0 -158 -64.5
t-65 -204.5zM402 765h-78l67 141h134z" />
    <glyph glyph-name="Ocircumflex" unicode="&#xd4;" horiz-adv-x="781" 
d="M46 360q0 72 20.5 136.5t61 117t108.5 83.5t155 31q161 0 252.5 -103.5t91.5 -266.5q0 -164 -91.5 -267t-254.5 -103q-159 0 -251 103.5t-92 268.5zM168 358q0 -136 65 -202.5t158 -66.5q65 0 112.5 30t72.5 74q37 67 37 167q0 123 -58.5 195t-163.5 72q-93 0 -158 -64.5
t-65 -204.5zM390 844l-54 -79h-105l104 141h109l106 -141h-105z" />
    <glyph glyph-name="Otilde" unicode="&#xd5;" horiz-adv-x="781" 
d="M46 360q0 72 20.5 136.5t61 117t108.5 83.5t155 31q161 0 252.5 -103.5t91.5 -266.5q0 -164 -91.5 -267t-254.5 -103q-159 0 -251 103.5t-92 268.5zM168 358q0 -136 65 -202.5t158 -66.5q65 0 112.5 30t72.5 74q37 67 37 167q0 123 -58.5 195t-163.5 72q-93 0 -158 -64.5
t-65 -204.5zM492 892h64q-6 -116 -93 -116q-29 0 -74 21q-47 22 -66 22q-35 0 -35 -45h-64q-2 60 26.5 88.5t67.5 28.5q31 0 86 -26q34 -15 49 -15q33 0 39 42z" />
    <glyph glyph-name="Odieresis" unicode="&#xd6;" horiz-adv-x="781" 
d="M46 360q0 72 20.5 136.5t61 117t108.5 83.5t155 31q161 0 252.5 -103.5t91.5 -266.5q0 -164 -91.5 -267t-254.5 -103q-159 0 -251 103.5t-92 268.5zM168 358q0 -136 65 -202.5t158 -66.5q65 0 112.5 30t72.5 74q37 67 37 167q0 123 -58.5 195t-163.5 72q-93 0 -158 -64.5
t-65 -204.5zM241 798v108h104v-108h-104zM436 798v108h104v-108h-104z" />
    <glyph glyph-name="multiply" unicode="&#xd7;" 
d="M67 202l151 151l-151 151l74 74l151 -151l150 150l73 -72l-150 -151l151 -151l-74 -74l-151 151l-151 -151z" />
    <glyph glyph-name="Oslash" unicode="&#xd8;" horiz-adv-x="781" 
d="M608 657l79 89l58 -50l-83 -93q73 -107 73 -243q0 -166 -92.5 -269t-254.5 -103q-117 0 -213 68l-81 -90l-58 50l85 95q-75 107 -75 244q0 167 91 270t254 103q125 0 217 -71zM202 202l333 373q-62 52 -144 52q-125 0 -184 -101q-39 -66 -39 -170q0 -89 34 -154zM581 512
l-332 -372q63 -51 145 -51q95 0 157 70t62 197q0 92 -32 156z" />
    <glyph glyph-name="Ugrave" unicode="&#xd9;" horiz-adv-x="719" 
d="M76 716h118v-403q0 -35 1 -53t5 -49.5t14.5 -49t28 -36.5t47 -27.5t69.5 -8.5q47 0 79 13t48.5 31t25.5 51.5t10.5 58t1.5 66.5v407h118v-396q0 -40 -0.5 -61.5t-6 -62t-15.5 -64.5t-30.5 -54.5t-50 -48t-75.5 -29.5t-104 -12t-104 12t-75.5 29t-50.5 47.5t-31 54.5
t-15.5 63.5t-6.5 62t-1 60.5v399zM426 765h-78l-123 141h134z" />
    <glyph glyph-name="Uacute" unicode="&#xda;" horiz-adv-x="719" 
d="M76 716h118v-403q0 -35 1 -53t5 -49.5t14.5 -49t28 -36.5t47 -27.5t69.5 -8.5q47 0 79 13t48.5 31t25.5 51.5t10.5 58t1.5 66.5v407h118v-396q0 -40 -0.5 -61.5t-6 -62t-15.5 -64.5t-30.5 -54.5t-50 -48t-75.5 -29.5t-104 -12t-104 12t-75.5 29t-50.5 47.5t-31 54.5
t-15.5 63.5t-6.5 62t-1 60.5v399zM371 765h-78l67 141h134z" />
    <glyph glyph-name="Ucircumflex" unicode="&#xdb;" horiz-adv-x="719" 
d="M76 716h118v-403q0 -35 1 -53t5 -49.5t14.5 -49t28 -36.5t47 -27.5t69.5 -8.5q47 0 79 13t48.5 31t25.5 51.5t10.5 58t1.5 66.5v407h118v-396q0 -40 -0.5 -61.5t-6 -62t-15.5 -64.5t-30.5 -54.5t-50 -48t-75.5 -29.5t-104 -12t-104 12t-75.5 29t-50.5 47.5t-31 54.5
t-15.5 63.5t-6.5 62t-1 60.5v399zM359 844l-54 -79h-105l104 141h109l106 -141h-105z" />
    <glyph glyph-name="Udieresis" unicode="&#xdc;" horiz-adv-x="719" 
d="M76 716h118v-403q0 -35 1 -53t5 -49.5t14.5 -49t28 -36.5t47 -27.5t69.5 -8.5q47 0 79 13t48.5 31t25.5 51.5t10.5 58t1.5 66.5v407h118v-396q0 -40 -0.5 -61.5t-6 -62t-15.5 -64.5t-30.5 -54.5t-50 -48t-75.5 -29.5t-104 -12t-104 12t-75.5 29t-50.5 47.5t-31 54.5
t-15.5 63.5t-6.5 62t-1 60.5v399zM210 798v108h104v-108h-104zM405 798v108h104v-108h-104z" />
    <glyph glyph-name="Yacute" unicode="&#xdd;" horiz-adv-x="667" 
d="M664 716l-275 -414v-302h-118v302l-269 414h141l153 -248q32 -52 39 -64q10 18 41 67l152 245h136zM345 765h-78l67 141h134z" />
    <glyph glyph-name="Thorn" unicode="&#xde;" horiz-adv-x="667" 
d="M76 0v716h118v-140h134q78 0 122 -5.5t78 -25.5q95 -54 95 -183q0 -40 -11 -76.5t-40 -70.5t-73 -52q-54 -22 -163 -22h-142v-141h-118zM194 475v-233h135q23 0 39.5 1t44 7.5t44.5 18t30.5 35.5t13.5 57q0 31 -14 58t-38 39q-23 12 -47.5 14.5t-77.5 2.5h-130z" />
    <glyph glyph-name="germandbls" unicode="&#xdf;" horiz-adv-x="615" 
d="M72 0v477q0 109 30 162q21 38 62 59.5t67.5 25.5t51.5 4q90 0 139 -42t49 -101q0 -29 -8.5 -53.5t-32.5 -67.5q-26 -46 -26 -68q0 -29 49 -65q70 -51 97.5 -88.5t27.5 -89.5q0 -69 -50 -117t-127 -48q-62 0 -105.5 34.5t-61.5 71.5l85 46q33 -61 77 -61q29 0 49.5 20.5
t20.5 48.5q0 24 -14 41t-45 41q-64 51 -91.5 82t-27.5 65q0 37 34 97q38 69 38 99q0 31 -23.5 48.5t-55.5 17.5q-28 0 -47.5 -11t-29.5 -25t-15 -40t-5.5 -42t-0.5 -46v-475h-111z" />
    <glyph glyph-name="agrave" unicode="&#xe0;" horiz-adv-x="552" 
d="M155 360l-104 19q11 31 23.5 53t37 47t68 38t102.5 13q116 0 168 -51q22 -21 30.5 -51.5t8.5 -94.5l-1 -185q1 -93 30 -148h-113q-13 33 -18 61q-76 -73 -174 -73q-82 0 -129.5 41.5t-47.5 109.5q0 37 16 66.5t36 45.5t52.5 28t49.5 15.5t43 7.5q96 13 145 31q2 26 -1 48
q-3 20 -15.5 33.5t-30 19t-30 7.5t-23.5 2q-62 0 -86.5 -20t-36.5 -63zM378 255q-39 -15 -123 -29q-22 -4 -34.5 -7t-32 -11.5t-29 -24t-9.5 -36.5q0 -28 22 -52.5t72 -24.5q36 0 67.5 16.5t49.5 45.5q12 20 14.5 43t2.5 80zM343 585h-78l-123 141h134z" />
    <glyph glyph-name="aacute" unicode="&#xe1;" horiz-adv-x="552" 
d="M155 360l-104 19q11 31 23.5 53t37 47t68 38t102.5 13q116 0 168 -51q22 -21 30.5 -51.5t8.5 -94.5l-1 -185q1 -93 30 -148h-113q-13 33 -18 61q-76 -73 -174 -73q-82 0 -129.5 41.5t-47.5 109.5q0 37 16 66.5t36 45.5t52.5 28t49.5 15.5t43 7.5q96 13 145 31q2 26 -1 48
q-3 20 -15.5 33.5t-30 19t-30 7.5t-23.5 2q-62 0 -86.5 -20t-36.5 -63zM378 255q-39 -15 -123 -29q-22 -4 -34.5 -7t-32 -11.5t-29 -24t-9.5 -36.5q0 -28 22 -52.5t72 -24.5q36 0 67.5 16.5t49.5 45.5q12 20 14.5 43t2.5 80zM288 585h-78l67 141h134z" />
    <glyph glyph-name="acircumflex" unicode="&#xe2;" horiz-adv-x="552" 
d="M155 360l-104 19q11 31 23.5 53t37 47t68 38t102.5 13q116 0 168 -51q22 -21 30.5 -51.5t8.5 -94.5l-1 -185q1 -93 30 -148h-113q-13 33 -18 61q-76 -73 -174 -73q-82 0 -129.5 41.5t-47.5 109.5q0 37 16 66.5t36 45.5t52.5 28t49.5 15.5t43 7.5q96 13 145 31q2 26 -1 48
q-3 20 -15.5 33.5t-30 19t-30 7.5t-23.5 2q-62 0 -86.5 -20t-36.5 -63zM378 255q-39 -15 -123 -29q-22 -4 -34.5 -7t-32 -11.5t-29 -24t-9.5 -36.5q0 -28 22 -52.5t72 -24.5q36 0 67.5 16.5t49.5 45.5q12 20 14.5 43t2.5 80zM276 664l-54 -79h-105l104 141h109l106 -141
h-105z" />
    <glyph glyph-name="atilde" unicode="&#xe3;" horiz-adv-x="552" 
d="M155 360l-104 19q11 31 23.5 53t37 47t68 38t102.5 13q116 0 168 -51q22 -21 30.5 -51.5t8.5 -94.5l-1 -185q1 -93 30 -148h-113q-13 33 -18 61q-76 -73 -174 -73q-82 0 -129.5 41.5t-47.5 109.5q0 37 16 66.5t36 45.5t52.5 28t49.5 15.5t43 7.5q96 13 145 31q2 26 -1 48
q-3 20 -15.5 33.5t-30 19t-30 7.5t-23.5 2q-62 0 -86.5 -20t-36.5 -63zM378 255q-39 -15 -123 -29q-22 -4 -34.5 -7t-32 -11.5t-29 -24t-9.5 -36.5q0 -28 22 -52.5t72 -24.5q36 0 67.5 16.5t49.5 45.5q12 20 14.5 43t2.5 80zM378 712h64q-6 -116 -93 -116q-29 0 -74 21
q-47 22 -66 22q-35 0 -35 -45h-64q-2 60 26.5 88.5t67.5 28.5q31 0 86 -26q34 -15 49 -15q33 0 39 42z" />
    <glyph glyph-name="adieresis" unicode="&#xe4;" horiz-adv-x="552" 
d="M155 360l-104 19q11 31 23.5 53t37 47t68 38t102.5 13q116 0 168 -51q22 -21 30.5 -51.5t8.5 -94.5l-1 -185q1 -93 30 -148h-113q-13 33 -18 61q-76 -73 -174 -73q-82 0 -129.5 41.5t-47.5 109.5q0 37 16 66.5t36 45.5t52.5 28t49.5 15.5t43 7.5q96 13 145 31q2 26 -1 48
q-3 20 -15.5 33.5t-30 19t-30 7.5t-23.5 2q-62 0 -86.5 -20t-36.5 -63zM378 255q-39 -15 -123 -29q-22 -4 -34.5 -7t-32 -11.5t-29 -24t-9.5 -36.5q0 -28 22 -52.5t72 -24.5q36 0 67.5 16.5t49.5 45.5q12 20 14.5 43t2.5 80zM127 618v108h104v-108h-104zM322 618v108h104
v-108h-104z" />
    <glyph glyph-name="aring" unicode="&#xe5;" horiz-adv-x="552" 
d="M155 360l-104 19q11 31 23.5 53t37 47t68 38t102.5 13q116 0 168 -51q22 -21 30.5 -51.5t8.5 -94.5l-1 -185q1 -93 30 -148h-113q-13 33 -18 61q-76 -73 -174 -73q-82 0 -129.5 41.5t-47.5 109.5q0 37 16 66.5t36 45.5t52.5 28t49.5 15.5t43 7.5q96 13 145 31q2 26 -1 48
q-3 20 -15.5 33.5t-30 19t-30 7.5t-23.5 2q-62 0 -86.5 -20t-36.5 -63zM378 255q-39 -15 -123 -29q-22 -4 -34.5 -7t-32 -11.5t-29 -24t-9.5 -36.5q0 -28 22 -52.5t72 -24.5q36 0 67.5 16.5t49.5 45.5q12 20 14.5 43t2.5 80zM277 715q-20 0 -34.5 -14.5t-14.5 -34.5
t14.5 -34.5t34.5 -14.5t34.5 14.5t14.5 34.5t-14.5 34.5t-34.5 14.5zM277 758q38 0 65 -27t27 -65t-27 -65t-65 -27t-65 27t-27 65t27 65t65 27z" />
    <glyph glyph-name="ae" unicode="&#xe6;" horiz-adv-x="885" 
d="M845 228h-360q0 -61 19 -94q14 -24 43.5 -41t65.5 -17q89 0 116 92l112 -17q-25 -80 -84 -121.5t-144 -41.5q-70 0 -112.5 23t-77.5 62q-92 -85 -209 -85q-50 0 -86.5 15.5t-55 39.5t-27 48t-8.5 48q0 37 15.5 66t34 44.5t49 27.5t46.5 15.5t41 7.5q111 19 150 32
q-1 14 0 29t-4.5 29.5t-14 26.5t-28 19t-47.5 7q-36 0 -60 -7t-36.5 -21.5t-17.5 -25.5t-9 -30l-104 17q8 30 20 53t36 48t67 39t102 14q43 0 76 -6t53 -17t28 -18t18 -18q67 59 157 59q119 0 180 -84t56 -218zM374 254q-49 -17 -118 -29q-22 -3 -36 -7t-32 -12.5
t-27.5 -23.5t-9.5 -36q0 -27 21.5 -51t69.5 -24q41 0 74.5 21t47.5 56q10 25 10 106zM486 307h248q-12 136 -126 136q-52 0 -85 -35t-37 -101z" />
    <glyph glyph-name="ccedilla" unicode="&#xe7;" horiz-adv-x="531" 
d="M239 -8q-89 11 -142.5 82t-53.5 185q0 119 61.5 195t183.5 76q117 0 175 -73q32 -41 45 -102l-108 -18q-4 18 -8.5 29.5t-16 31.5t-33.5 30.5t-52 10.5q-42 0 -71 -19.5t-41 -50.5t-16.5 -55.5t-4.5 -48.5q0 -29 4.5 -56t16.5 -59t40 -51.5t69 -19.5q34 0 58 12.5
t36 35.5t16 36t7 31l109 -17q-16 -85 -73 -135t-132 -52l-7 -17q50 3 78.5 -21t28.5 -59q0 -15 -6.5 -29.5t-22.5 -31.5t-51 -27t-85 -10q-46 0 -72 7l2 57q48 -4 71 -4q11 0 24 1t33 11.5t20 29.5q0 20 -21.5 28t-42.5 8q-18 0 -36 -5z" />
    <glyph glyph-name="egrave" unicode="&#xe8;" horiz-adv-x="552" 
d="M515 228h-366q2 -68 38 -110.5t98 -42.5q83 0 113 91l112 -17q-22 -74 -79 -117.5t-149 -43.5q-58 0 -103 18t-71.5 45.5t-43.5 64.5t-23 71t-6 69q0 52 13.5 99t41 87t75 64t108.5 24q124 0 184.5 -83t57.5 -219zM149 307h252q-1 22 -6.5 41.5t-17.5 43t-38 37.5t-62 14
q-38 0 -65.5 -17t-39.5 -43.5t-17 -43.5t-6 -32zM343 585h-78l-123 141h134z" />
    <glyph glyph-name="eacute" unicode="&#xe9;" horiz-adv-x="552" 
d="M515 228h-366q2 -68 38 -110.5t98 -42.5q83 0 113 91l112 -17q-22 -74 -79 -117.5t-149 -43.5q-58 0 -103 18t-71.5 45.5t-43.5 64.5t-23 71t-6 69q0 52 13.5 99t41 87t75 64t108.5 24q124 0 184.5 -83t57.5 -219zM149 307h252q-1 22 -6.5 41.5t-17.5 43t-38 37.5t-62 14
q-38 0 -65.5 -17t-39.5 -43.5t-17 -43.5t-6 -32zM288 585h-78l67 141h134z" />
    <glyph glyph-name="ecircumflex" unicode="&#xea;" horiz-adv-x="552" 
d="M515 228h-366q2 -68 38 -110.5t98 -42.5q83 0 113 91l112 -17q-22 -74 -79 -117.5t-149 -43.5q-58 0 -103 18t-71.5 45.5t-43.5 64.5t-23 71t-6 69q0 52 13.5 99t41 87t75 64t108.5 24q124 0 184.5 -83t57.5 -219zM149 307h252q-1 22 -6.5 41.5t-17.5 43t-38 37.5t-62 14
q-38 0 -65.5 -17t-39.5 -43.5t-17 -43.5t-6 -32zM276 664l-54 -79h-105l104 141h109l106 -141h-105z" />
    <glyph glyph-name="edieresis" unicode="&#xeb;" horiz-adv-x="552" 
d="M515 228h-366q2 -68 38 -110.5t98 -42.5q83 0 113 91l112 -17q-22 -74 -79 -117.5t-149 -43.5q-58 0 -103 18t-71.5 45.5t-43.5 64.5t-23 71t-6 69q0 52 13.5 99t41 87t75 64t108.5 24q124 0 184.5 -83t57.5 -219zM149 307h252q-1 22 -6.5 41.5t-17.5 43t-38 37.5t-62 14
q-38 0 -65.5 -17t-39.5 -43.5t-17 -43.5t-6 -32zM127 618v108h104v-108h-104zM322 618v108h104v-108h-104z" />
    <glyph glyph-name="igrave" unicode="&#xec;" horiz-adv-x="250" 
d="M70 0v518h111v-518h-111zM192 585h-78l-123 141h134z" />
    <glyph glyph-name="iacute" unicode="&#xed;" horiz-adv-x="250" 
d="M70 0v518h111v-518h-111zM137 585h-78l67 141h134z" />
    <glyph glyph-name="icircumflex" unicode="&#xee;" horiz-adv-x="250" 
d="M70 0v518h111v-518h-111zM125 664l-54 -79h-105l104 141h109l106 -141h-105z" />
    <glyph glyph-name="idieresis" unicode="&#xef;" horiz-adv-x="250" 
d="M70 0v518h111v-518h-111zM-24 618v108h104v-108h-104zM171 618v108h104v-108h-104z" />
    <glyph glyph-name="eth" unicode="&#xf0;" 
d="M157 716h123q26 -20 57 -47l97 47l22 -49l-77 -37q165 -178 165 -374q0 -114 -68 -191t-188 -77q-104 0 -176.5 69.5t-72.5 196.5t67.5 195.5t155.5 68.5q50 0 104 -30l2 2q-29 54 -70 102l-128 -60l-22 49l112 52q-48 44 -103 83zM290 79q59 0 99.5 46.5t40.5 130.5
t-41 129.5t-101 45.5q-56 0 -95.5 -43.5t-39.5 -134.5q0 -90 41 -132t96 -42z" />
    <glyph glyph-name="ntilde" unicode="&#xf1;" 
d="M69 0v518h102v-74h2q27 41 71 63.5t95 22.5q48 0 90.5 -20t60.5 -54q17 -32 21 -61.5t4 -91.5v-303h-111v291q0 26 -0.5 41t-5.5 39t-15 36.5t-29.5 23t-47.5 10.5q-34 0 -63.5 -16.5t-41.5 -41.5q-21 -42 -21 -122v-261h-111zM393 712h64q-6 -116 -93 -116q-29 0 -74 21
q-47 22 -66 22q-35 0 -35 -45h-64q-2 60 26.5 88.5t67.5 28.5q31 0 86 -26q34 -15 49 -15q33 0 39 42z" />
    <glyph glyph-name="ograve" unicode="&#xf2;" 
d="M37 253q0 136 73.5 206.5t181.5 70.5q114 0 184 -74.5t70 -195.5q0 -123 -71.5 -197.5t-183.5 -74.5q-48 0 -92 15.5t-81 46.5t-59 83.5t-22 119.5zM151 259q0 -94 43 -137t98 -43q22 0 43.5 7.5t44.5 26t37.5 57t14.5 92.5q0 86 -40.5 131.5t-99.5 45.5q-56 0 -98.5 -43
t-42.5 -137zM358 585h-78l-123 141h134z" />
    <glyph glyph-name="oacute" unicode="&#xf3;" 
d="M37 253q0 136 73.5 206.5t181.5 70.5q114 0 184 -74.5t70 -195.5q0 -123 -71.5 -197.5t-183.5 -74.5q-48 0 -92 15.5t-81 46.5t-59 83.5t-22 119.5zM151 259q0 -94 43 -137t98 -43q22 0 43.5 7.5t44.5 26t37.5 57t14.5 92.5q0 86 -40.5 131.5t-99.5 45.5q-56 0 -98.5 -43
t-42.5 -137zM303 585h-78l67 141h134z" />
    <glyph glyph-name="ocircumflex" unicode="&#xf4;" 
d="M37 253q0 136 73.5 206.5t181.5 70.5q114 0 184 -74.5t70 -195.5q0 -123 -71.5 -197.5t-183.5 -74.5q-48 0 -92 15.5t-81 46.5t-59 83.5t-22 119.5zM151 259q0 -94 43 -137t98 -43q22 0 43.5 7.5t44.5 26t37.5 57t14.5 92.5q0 86 -40.5 131.5t-99.5 45.5q-56 0 -98.5 -43
t-42.5 -137zM291 664l-54 -79h-105l104 141h109l106 -141h-105z" />
    <glyph glyph-name="otilde" unicode="&#xf5;" 
d="M37 253q0 136 73.5 206.5t181.5 70.5q114 0 184 -74.5t70 -195.5q0 -123 -71.5 -197.5t-183.5 -74.5q-48 0 -92 15.5t-81 46.5t-59 83.5t-22 119.5zM151 259q0 -94 43 -137t98 -43q22 0 43.5 7.5t44.5 26t37.5 57t14.5 92.5q0 86 -40.5 131.5t-99.5 45.5q-56 0 -98.5 -43
t-42.5 -137zM393 712h64q-6 -116 -93 -116q-29 0 -74 21q-47 22 -66 22q-35 0 -35 -45h-64q-2 60 26.5 88.5t67.5 28.5q31 0 86 -26q34 -15 49 -15q33 0 39 42z" />
    <glyph glyph-name="odieresis" unicode="&#xf6;" 
d="M37 253q0 136 73.5 206.5t181.5 70.5q114 0 184 -74.5t70 -195.5q0 -123 -71.5 -197.5t-183.5 -74.5q-48 0 -92 15.5t-81 46.5t-59 83.5t-22 119.5zM151 259q0 -94 43 -137t98 -43q22 0 43.5 7.5t44.5 26t37.5 57t14.5 92.5q0 86 -40.5 131.5t-99.5 45.5q-56 0 -98.5 -43
t-42.5 -137zM142 618v108h104v-108h-104zM337 618v108h104v-108h-104z" />
    <glyph glyph-name="divide" unicode="&#xf7;" 
d="M535 301h-486v104h486v-104zM233 463v118h118v-118h-118zM233 125v118h118v-118h-118z" />
    <glyph glyph-name="oslash" unicode="&#xf8;" 
d="M438 488l50 61l50 -40l-52 -64q60 -76 60 -186q0 -123 -72.5 -197t-183.5 -74q-78 0 -143 40l-54 -65l-49 40l54 67q-61 73 -61 187q0 124 70 198.5t183 74.5q80 0 148 -42zM169 156l205 254q-41 29 -82 29q-22 0 -44 -7.5t-45.5 -25.5t-38 -56t-14.5 -92q0 -64 19 -102z
M413 357l-202 -251q34 -27 78 -27q62 0 102 46t40 136q0 21 -2 38t-4.5 25t-6.5 19t-5 14z" />
    <glyph glyph-name="ugrave" unicode="&#xf9;" 
d="M511 0h-101v77h-2q-60 -89 -166 -89q-47 0 -89.5 20.5t-60.5 53.5q-25 48 -25 132v324h111v-263q0 -105 17 -134q25 -42 81 -42q34 0 63 16.5t41 39.5q20 41 20 134v249h111v-518zM358 585h-78l-123 141h134z" />
    <glyph glyph-name="uacute" unicode="&#xfa;" 
d="M511 0h-101v77h-2q-60 -89 -166 -89q-47 0 -89.5 20.5t-60.5 53.5q-25 48 -25 132v324h111v-263q0 -105 17 -134q25 -42 81 -42q34 0 63 16.5t41 39.5q20 41 20 134v249h111v-518zM303 585h-78l67 141h134z" />
    <glyph glyph-name="ucircumflex" unicode="&#xfb;" 
d="M511 0h-101v77h-2q-60 -89 -166 -89q-47 0 -89.5 20.5t-60.5 53.5q-25 48 -25 132v324h111v-263q0 -105 17 -134q25 -42 81 -42q34 0 63 16.5t41 39.5q20 41 20 134v249h111v-518zM291 664l-54 -79h-105l104 141h109l106 -141h-105z" />
    <glyph glyph-name="udieresis" unicode="&#xfc;" 
d="M511 0h-101v77h-2q-60 -89 -166 -89q-47 0 -89.5 20.5t-60.5 53.5q-25 48 -25 132v324h111v-263q0 -105 17 -134q25 -42 81 -42q34 0 63 16.5t41 39.5q20 41 20 134v249h111v-518zM142 618v108h104v-108h-104zM337 618v108h104v-108h-104z" />
    <glyph glyph-name="yacute" unicode="&#xfd;" horiz-adv-x="531" 
d="M15 518h119l134 -386h2l134 386h113l-190 -514q-17 -46 -25 -66.5t-22.5 -51.5t-26 -43.5t-29.5 -27.5t-40 -20t-51 -5q-42 0 -72 9l-11 94q28 -7 55 -7q42 0 63.5 23t43.5 90zM277 585h-78l67 141h134z" />
    <glyph glyph-name="thorn" unicode="&#xfe;" 
d="M69 -198v914h111v-255q22 22 35.5 33.5t43.5 23.5t67 12q95 0 157.5 -70.5t62.5 -193.5q0 -135 -66.5 -206.5t-155.5 -71.5q-35 0 -63 11t-42.5 23.5t-38.5 36.5v-257h-111zM174 254q0 -88 38.5 -131.5t90.5 -43.5q42 0 70 21t39.5 54.5t15.5 58t4 49.5q0 92 -37 136.5
t-90 44.5q-56 0 -93.5 -48t-37.5 -141z" />
    <glyph glyph-name="ydieresis" unicode="&#xff;" horiz-adv-x="531" 
d="M15 518h119l134 -386h2l134 386h113l-190 -514q-17 -46 -25 -66.5t-22.5 -51.5t-26 -43.5t-29.5 -27.5t-40 -20t-51 -5q-42 0 -72 9l-11 94q28 -7 55 -7q42 0 63.5 23t43.5 90zM116 618v108h104v-108h-104zM311 618v108h104v-108h-104z" />
    <glyph glyph-name="dotlessi" unicode="&#x131;" horiz-adv-x="250" 
d="M70 0v518h111v-518h-111z" />
    <glyph glyph-name="Lslash" unicode="&#x141;" 
d="M76 260l-73 -62v98l73 62v358h118v-259l161 137v-99l-161 -136v-258h357v-101h-475v260z" />
    <glyph glyph-name="lslash" unicode="&#x142;" horiz-adv-x="250" 
d="M69 270l-65 -55v85l65 55v361h111v-267l66 56v-84l-66 -56v-365h-111v270z" />
    <glyph glyph-name="OE" unicode="&#x152;" horiz-adv-x="1000" 
d="M528 716h426v-101h-319v-192h293v-101h-293v-221h334v-101h-440v94h-2q-58 -106 -191 -106q-66 0 -118 24.5t-83 62t-50.5 88t-27 98t-7.5 96.5q0 73 15.5 137t47.5 117.5t88 85t130 31.5q134 0 195 -100h2v88zM517 367q0 86 -22 147q-42 118 -148 118q-36 0 -64.5 -13
t-46.5 -31.5t-31 -47t-19 -51.5t-9.5 -53.5t-4 -44.5t-0.5 -32q0 -32 2.5 -61.5t13 -69.5t28.5 -69t51 -49.5t78 -20.5q172 0 172 278z" />
    <glyph glyph-name="oe" unicode="&#x153;" horiz-adv-x="948" 
d="M905 228h-364q0 -80 38 -116.5t95 -36.5q30 0 52 8.5t34 25.5t17 28t11 31l110 -17q-53 -163 -222 -163q-118 0 -194 86q-73 -86 -191 -86q-111 0 -180.5 74.5t-69.5 196.5q0 119 67 195t184 76q67 0 116 -25.5t75 -60.5q31 42 79.5 64t103.5 22q71 0 121.5 -32t74.5 -74
q43 -76 43 -196zM293 439q-67 0 -102.5 -52t-35.5 -131q0 -84 40 -130.5t98 -46.5q59 0 98.5 47.5t39.5 135.5q0 78 -36.5 127.5t-101.5 49.5zM544 307h250q-1 13 -2.5 23.5t-9.5 33.5t-20 38.5t-36.5 28t-56.5 12.5q-15 0 -30 -3.5t-37.5 -15.5t-38 -42t-19.5 -75z" />
    <glyph glyph-name="Scaron" unicode="&#x160;" horiz-adv-x="667" 
d="M41 231l114 10q6 -51 30 -84q49 -68 153 -68q72 0 117 29.5t45 81.5q0 49 -39.5 71t-135.5 45q-27 7 -41 10.5t-42 12t-44.5 16.5t-39.5 20t-36.5 27t-27 33.5t-20 42t-6.5 51.5q0 84 66.5 141.5t188.5 57.5q119 0 194 -54t79 -162l-117 -7q-2 20 -6.5 34.5t-19 38
t-47 36.5t-80.5 13q-60 0 -102.5 -23t-42.5 -68q0 -40 35.5 -61t131.5 -43q34 -8 51.5 -12.5t50.5 -15t52 -20.5t44 -27.5t38 -37.5t23 -49t10 -63q0 -39 -13.5 -74.5t-43.5 -69.5t-87.5 -54.5t-136.5 -20.5q-64 0 -115 15t-83 39t-53.5 57t-31 65t-12.5 67zM334 827l54 79
h105l-104 -141h-109l-106 141h105z" />
    <glyph glyph-name="scaron" unicode="&#x161;" horiz-adv-x="531" 
d="M474 388l-106 -18q-13 75 -109 75q-21 0 -41.5 -3.5t-40 -17t-19.5 -35.5q0 -24 25.5 -38t96.5 -30q43 -10 70 -17.5t57 -21t47 -29t28 -39t11 -54.5q0 -69 -55.5 -120.5t-167.5 -51.5q-107 0 -163.5 48t-69.5 116l110 17q16 -96 122 -96q12 0 25 1.5t35 7.5t36 22t14 40
q0 21 -15.5 34.5t-55.5 22.5q-57 13 -89 22t-68.5 23.5t-54.5 30.5t-30.5 41t-12.5 57q0 73 56.5 114t138.5 41q199 0 226 -142zM266 647l54 79h105l-104 -141h-109l-106 141h105z" />
    <glyph glyph-name="Ydieresis" unicode="&#x178;" horiz-adv-x="667" 
d="M664 716l-275 -414v-302h-118v302l-269 414h141l153 -248q32 -52 39 -64q10 18 41 67l152 245h136zM184 798v108h104v-108h-104zM379 798v108h104v-108h-104z" />
    <glyph glyph-name="Zcaron" unicode="&#x17d;" horiz-adv-x="615" 
d="M21 0v108l372 462q21 27 39 45h-369v101h518v-98l-398 -490q-5 -7 -12 -15t-10 -12h433v-101h-573zM308 827l54 79h105l-104 -141h-109l-106 141h105z" />
    <glyph glyph-name="zcaron" unicode="&#x17e;" horiz-adv-x="500" 
d="M19 0v88l267 306q28 31 33 36q-35 -3 -82 -3h-198v91h426v-76l-242 -282q-10 -12 -32 -35.5t-33 -35.5l2 -2q41 4 93 4h227v-91h-461zM251 647l54 79h105l-104 -141h-109l-106 141h105z" />
    <glyph glyph-name="florin" unicode="&#x192;" horiz-adv-x="552" 
d="M8 -203l22 90q55 -11 81 -11q21 0 33.5 12.5t16 25.5t8.5 41l80 470h-98l14 84h99l10 55q6 31 9.5 46.5t14 40t24.5 36.5t39.5 22t59.5 10q65 0 122 -19l-21 -91q-51 12 -80 12q-28 0 -39 -16.5t-19 -55.5l-8 -40h100l-14 -84h-100l-89 -507q-5 -30 -12.5 -50t-22 -42
t-41 -33.5t-64.5 -11.5q-67 0 -125 16z" />
    <glyph glyph-name="circumflex" unicode="&#x2c6;" horiz-adv-x="333" 
d="M166 662l-54 -79h-105l104 141h109l106 -141h-105z" />
    <glyph glyph-name="caron" unicode="&#x2c7;" horiz-adv-x="333" 
d="M167 645l54 79h105l-104 -141h-109l-106 141h105z" />
    <glyph glyph-name="uni02C9" unicode="&#x2c9;" horiz-adv-x="333" 
d="M12 611v81h309v-81h-309z" />
    <glyph glyph-name="breve" unicode="&#x2d8;" horiz-adv-x="333" 
d="M251 721h63q-4 -41 -21 -69.5t-40.5 -41.5t-44.5 -18t-42 -5q-12 0 -23.5 1t-34 8.5t-39.5 20.5t-32 40t-19 64h63q2 -12 4.5 -18.5t10.5 -20.5t25.5 -21.5t43.5 -7.5t44 6.5t26 20t11 21t5 20.5z" />
    <glyph glyph-name="dotaccent" unicode="&#x2d9;" horiz-adv-x="333" 
d="M106 591v118h122v-118h-122z" />
    <glyph glyph-name="ring" unicode="&#x2da;" horiz-adv-x="333" 
d="M167 713q-20 0 -34.5 -14.5t-14.5 -34.5t14.5 -34.5t34.5 -14.5t34.5 14.5t14.5 34.5t-14.5 34.5t-34.5 14.5zM167 756q38 0 65 -27t27 -65t-27 -65t-65 -27t-65 27t-27 65t27 65t65 27z" />
    <glyph glyph-name="ogonek" unicode="&#x2db;" horiz-adv-x="333" 
d="M103 12h66q-14 -37 -14 -76q0 -33 18.5 -54t50.5 -21q34 0 76 17v-62q-55 -25 -107 -25q-43 0 -76 28t-33 82q0 43 19 111z" />
    <glyph glyph-name="tilde" unicode="&#x2dc;" horiz-adv-x="333" 
d="M268 710h64q-6 -116 -93 -116q-29 0 -74 21q-47 22 -66 22q-35 0 -35 -45h-64q-2 60 26.5 88.5t67.5 28.5q31 0 86 -26q34 -15 49 -15q33 0 39 42z" />
    <glyph glyph-name="hungarumlaut" unicode="&#x2dd;" horiz-adv-x="333" 
d="M214 584l63 141h128l-113 -141h-78zM37 584l63 141h128l-113 -141h-78z" />
    <glyph glyph-name="uni03A9" unicode="&#x3a9;" horiz-adv-x="710" 
d="M654 0h-246v95q121 116 121 278q0 107 -46.5 172t-131.5 65q-83 0 -133.5 -66t-50.5 -173q0 -163 122 -276v-95h-245v95h146q-148 119 -148 300q0 138 86.5 227.5t224.5 89.5q142 0 222 -87.5t80 -226.5q0 -185 -150 -303h149v-95z" />
    <glyph glyph-name="uni03BC" unicode="&#x3bc;" 
d="M514 518v-518h-101v62h-2q-39 -74 -118 -74q-31 0 -54.5 12t-33.5 24.5t-22 32.5h-2v-256h-111v717h111v-226q0 -104 12 -139q12 -34 37.5 -52.5t58.5 -18.5q35 0 62 19.5t40 52.5q12 31 12 136v228h111z" />
    <glyph glyph-name="pi" unicode="&#x3c0;" horiz-adv-x="653" 
d="M593 86l21 -75q-35 -20 -87 -20q-71 0 -104 42.5t-33 108.5v272h-118v-267q0 -93 -17 -147h-119q19 63 19 156v258q-53 0 -94 -24q-5 12 -15.5 37.5t-16.5 38.5q58 34 156 34h423v-86h-100v-257q0 -80 53 -80q12 0 32 9z" />
    <glyph glyph-name="endash" unicode="&#x2013;" horiz-adv-x="500" 
d="M-6 295h512v-90h-512v90z" />
    <glyph glyph-name="emdash" unicode="&#x2014;" horiz-adv-x="1000" 
d="M-6 295h1012v-90h-1012v90z" />
    <glyph glyph-name="quoteleft" unicode="&#x2018;" horiz-adv-x="250" 
d="M183 583v-119h-114v89q0 30 2 47.5t10 44.5t30.5 47.5t57.5 35.5l24 -45q-34 -13 -49 -36t-16 -64h55z" />
    <glyph glyph-name="quoteright" unicode="&#x2019;" horiz-adv-x="250" 
d="M67 597v119h114v-89q0 -24 -0.5 -37.5t-6 -37t-15 -39t-29.5 -32.5t-49 -29l-24 45q33 12 48.5 35t16.5 65h-55z" />
    <glyph glyph-name="quotesinglbase" unicode="&#x201a;" horiz-adv-x="250" 
d="M64 0v118h117v-100q0 -27 -2 -44.5t-10.5 -43t-30.5 -46t-57 -34.5l-26 46q31 13 48 35t18 69h-57z" />
    <glyph glyph-name="quotedblleft" unicode="&#x201c;" horiz-adv-x="417" 
d="M356 583v-119h-114v89q0 24 0.5 37.5t6 37t15 39t29.5 32.5t49 29l24 -45q-33 -12 -48.5 -35t-16.5 -65h55zM168 583v-119h-114v89q0 30 2 47.5t10 44.5t30.5 47.5t57.5 35.5l24 -45q-34 -13 -49 -36t-16 -64h55z" />
    <glyph glyph-name="quotedblright" unicode="&#x201d;" horiz-adv-x="417" 
d="M61 597v119h114v-89q0 -24 -0.5 -37.5t-6 -37t-15 -39t-29.5 -32.5t-49 -29l-24 45q33 12 48.5 35t16.5 65h-55zM249 597v119h114v-89q0 -30 -2 -47.5t-10 -44.5t-30.5 -47.5t-57.5 -35.5l-24 45q34 13 49 36t16 64h-55z" />
    <glyph glyph-name="quotedblbase" unicode="&#x201e;" horiz-adv-x="417" 
d="M57 0v119h114v-89q0 -24 -0.5 -37.5t-6 -37t-15 -39t-29.5 -32.5t-49 -29l-24 45q33 12 48.5 35t16.5 65h-55zM245 0v119h114v-89q0 -30 -2 -47.5t-10 -44.5t-30.5 -47.5t-57.5 -35.5l-24 45q34 13 49 36t16 64h-55z" />
    <glyph glyph-name="dagger" unicode="&#x2020;" horiz-adv-x="552" 
d="M222 -167v584h-187v95h187v194h107v-194h188v-95h-188v-584h-107z" />
    <glyph glyph-name="daggerdbl" unicode="&#x2021;" horiz-adv-x="552" 
d="M222 -171v172h-187v95h187v339h-187v95h187v176h107v-176h188v-95h-188v-339h188v-95h-188v-172h-107z" />
    <glyph glyph-name="bullet" unicode="&#x2022;" horiz-adv-x="354" 
d="M177 485q55 0 94 -39t39 -94t-39 -94.5t-94 -39.5t-94.5 39t-39.5 95q0 55 39 94t95 39z" />
    <glyph glyph-name="ellipsis" unicode="&#x2026;" horiz-adv-x="1000" 
d="M774 0v118h118v-118h-118zM441 0v118h118v-118h-118zM108 0v118h118v-118h-118z" />
    <glyph glyph-name="perthousand" unicode="&#x2030;" horiz-adv-x="1000" 
d="M93 547q0 -25 1.5 -43t7 -39.5t18 -33t32.5 -11.5q18 0 30 10t17.5 29.5t7 37.5t1.5 43q0 120 -57 120q-58 0 -58 -113zM147 -26l296 754h79l-296 -754h-79zM10 538q0 30 5 58t18 60.5t43 52t74 19.5t74 -19t43.5 -50.5t18.5 -59t5 -57.5q0 -16 -1 -28t-4 -37.5
t-12.5 -44t-24 -38.5t-40 -31t-58.5 -11q-40 0 -68.5 17t-42 38t-21 52.5t-8.5 46t-1 32.5zM464 168q0 -25 1.5 -42.5t7 -39t18 -33t32.5 -11.5q23 0 36.5 19t16.5 42.5t3 58.5q0 120 -57 120q-58 0 -58 -114zM381 159q0 32 5 60t18 60t43 51.5t74 19.5t74 -19t43.5 -50.5
t18.5 -59t5 -57.5q0 -20 -1 -37t-9 -47.5t-21.5 -51.5t-42 -37.5t-67.5 -16.5q-38 0 -66.5 16t-42 37t-21 50.5t-9 46.5t-1.5 35zM709 160q0 30 5 58t18 60.5t43 52t74 19.5q36 0 62.5 -13.5t41 -33t23.5 -46.5t11.5 -48.5t2.5 -44.5q0 -26 -3 -48t-14.5 -59.5t-43 -60
t-79.5 -22.5q-39 0 -68 17t-42.5 38.5t-21 52t-8.5 46t-1 32.5zM851 282q-59 0 -59 -117q0 -123 59 -123q57 0 57 120t-57 120z" />
    <glyph glyph-name="guilsinglleft" unicode="&#x2039;" horiz-adv-x="365" 
d="M213 480h89l-128 -222l128 -223h-89l-154 223z" />
    <glyph glyph-name="guilsinglright" unicode="&#x203a;" horiz-adv-x="365" 
d="M152 35h-89l128 222l-128 223h89l154 -223z" />
    <glyph glyph-name="fraction" unicode="&#x2044;" horiz-adv-x="167" 
d="M-120 -27h-77l484 753h77z" />
    <glyph glyph-name="Euro" unicode="&#x20ac;" horiz-adv-x="552" 
d="M530 672l-26 -100q-27 25 -63 40q-33 15 -81 15q-40 0 -70 -12q-30 -11 -52 -32q-23 -21 -37 -47q-15 -30 -23 -59h307l-17 -87h-302q-1 -7 -1 -29q0 -27 1 -34h292l-17 -87h-262q18 -68 62 -115q45 -46 115 -46q52 0 84 13q32 11 64 32v-108q-23 -13 -59 -20
q-33 -8 -85 -8q-129 0 -201 68q-74 68 -98 184h-66l17 87h38q-1 7 -1 32q0 24 1 31h-55l17 87h50q27 117 108 180q82 62 195 62q39 0 74 -8q35 -10 53 -19q16 -8 38 -20z" />
    <glyph glyph-name="afii61289" unicode="&#x2113;" horiz-adv-x="493" 
d="M409 46q-65 -61 -137 -61q-59 0 -95 36q-41 41 -41 130v80q-36 -38 -54 -56q-24 34 -35 52q1 1 89 92v213q0 95 38.5 145.5t104.5 50.5q57 0 84 -36t27 -82q0 -68 -30 -129t-86 -129q-30 -36 -32 -38v-153q0 -94 59 -94q35 0 75 42zM323 597q0 48 -35 48q-46 0 -46 -97
v-141q13 15 16 22q65 87 65 168z" />
    <glyph glyph-name="trademark" unicode="&#x2122;" horiz-adv-x="1000" 
d="M235 317v335h-127v64h325v-64h-125v-335h-73zM479 317v399h111l87 -298h2l85 298h110v-399h-68v327h-2l-93 -327h-67l-95 329h-2v-329h-68z" />
    <glyph glyph-name="Omega" unicode="&#x2126;" horiz-adv-x="710" 
d="M654 0h-246v95q121 116 121 278q0 107 -46.5 172t-131.5 65q-83 0 -133.5 -66t-50.5 -173q0 -163 122 -276v-95h-245v95h146q-148 119 -148 300q0 138 86.5 227.5t224.5 89.5q142 0 222 -87.5t80 -226.5q0 -185 -150 -303h149v-95z" />
    <glyph glyph-name="estimated" unicode="&#x212e;" horiz-adv-x="661" 
d="M600 284h-439v-195q64 -64 156 -64q132 0 210 129l36 -21q-49 -72 -105.5 -108.5t-140.5 -36.5q-125 0 -201 85t-76 212t76 211.5t202 84.5q128 0 203 -84t79 -213zM475 322v157q-66 66 -158 66t-156 -64v-159h314z" />
    <glyph glyph-name="partialdiff" unicode="&#x2202;" horiz-adv-x="576" 
d="M543 470q0 -93 -23 -190q-34 -125 -106.5 -208t-175.5 -83q-88 0 -142.5 55t-54.5 142q0 142 78.5 225t179.5 83q44 0 77.5 -18t47.5 -44h2q4 38 4 60q0 73 -34 111.5t-94 38.5q-50 0 -94 -26q-16 52 -25 78q55 36 136 36q104 0 164 -68t60 -192zM413 341q-24 72 -95 72
q-64 0 -112 -68t-48 -165q0 -47 22 -74.5t59 -27.5q62 0 108.5 75t65.5 188z" />
    <glyph glyph-name="Delta" unicode="&#x2206;" horiz-adv-x="608" 
d="M620 0h-596v51q96 286 220 649h159q36 -108 108.5 -324t108.5 -325v-51zM481 96q-61 184 -145 445q-8 25 -16 61h-4q-2 -9 -14 -59q-48 -149 -146 -447h325z" />
    <glyph glyph-name="product" unicode="&#x220f;" horiz-adv-x="719" 
d="M642 -230h-119v828h-328v-828h-118v930h565v-930z" />
    <glyph glyph-name="summation" unicode="&#x2211;" horiz-adv-x="631" 
d="M576 -230h-553v61q49 68 146.5 204t146.5 204q-144 210 -274 394v67h513v-95h-369l252 -363q-44 -63 -134 -188.5t-134 -188.5h406v-95z" />
    <glyph glyph-name="minus" unicode="&#x2212;" 
d="M535 301h-486v104h486v-104z" />
    <glyph glyph-name="uni2215" unicode="&#x2215;" horiz-adv-x="167" 
d="M-120 -27h-77l484 753h77z" />
    <glyph glyph-name="uni2219" unicode="&#x2219;" horiz-adv-x="281" 
d="M82 294v118h118v-118h-118z" />
    <glyph glyph-name="radical" unicode="&#x221a;" horiz-adv-x="513" 
d="M520 729q-60 -247 -178 -741h-95q-21 53 -63 157t-63 157q-18 -11 -54 -35q-24 40 -37 60q31 20 142 93q23 -60 67 -171t54 -137q49 205 147 617h80z" />
    <glyph glyph-name="infinity" unicode="&#x221e;" horiz-adv-x="783" 
d="M737 294q0 -76 -48 -126t-123 -50q-54 0 -101 28.5t-78 76.5h-2q-72 -105 -176 -105q-73 0 -123.5 46.5t-50.5 126.5q0 79 50.5 126t121.5 47q109 0 178 -105h2q27 42 72.5 73.5t103.5 31.5q75 0 124.5 -48t49.5 -122zM646 293q0 39 -23 65t-67 26q-38 0 -67.5 -23.5
t-58.5 -68.5q52 -94 127 -94q43 0 66 27.5t23 67.5zM342 292q-57 92 -127 92q-42 0 -65.5 -27t-23.5 -66q0 -40 25.5 -66.5t64.5 -26.5q70 0 126 94z" />
    <glyph glyph-name="integral" unicode="&#x222b;" horiz-adv-x="491" 
d="M410 652q-20 8 -43 8q-72 0 -72 -90v-611q0 -88 -43 -139.5t-128 -51.5q-52 0 -82 14l21 84q19 -8 43 -8q72 0 72 89v611q0 88 43.5 140t129.5 52q54 0 82 -15q-4 -14 -11.5 -41.5t-11.5 -41.5z" />
    <glyph glyph-name="approxequal" unicode="&#x2248;" 
d="M538 423q-31 -46 -65 -69t-80 -23q-59 0 -108 31q-52 32 -90 32q-42 0 -80 -66l-69 78q32 45 64.5 68.5t80.5 23.5q56 0 107 -30q54 -33 91 -33q41 0 81 66zM538 189q-31 -46 -64.5 -68.5t-80.5 -22.5q-59 0 -108 31q-52 32 -90 32q-42 0 -80 -66l-69 78q32 45 64.5 68.5
t80.5 23.5q55 0 107 -31q55 -32 91 -32q43 0 81 66z" />
    <glyph glyph-name="notequal" unicode="&#x2260;" 
d="M506 130h-231l-47 -106h-114l47 106h-83v104h128l58 130h-186v104h232l54 123h114l-54 -123h82v-104h-128l-58 -130h186v-104z" />
    <glyph glyph-name="lessequal" unicode="&#x2264;" 
d="M506 0h-428v104h428v-104zM506 143l-428 177v96l428 177v-109l-298 -116v-2l298 -116v-107z" />
    <glyph glyph-name="greaterequal" unicode="&#x2265;" 
d="M506 0h-428v104h428v-104zM506 320l-428 -177v109l298 116v2l-298 116v107l428 -177v-96z" />
    <glyph glyph-name="lozenge" unicode="&#x25ca;" horiz-adv-x="559" 
d="M493 350q-33 -59 -99.5 -175.5t-99.5 -174.5h-56q-33 58 -99.5 174.5t-99.5 174.5q33 59 99.5 176t99.5 175h56q33 -59 99.5 -175.5t99.5 -174.5zM406 350q-23 41 -69.5 123.5t-70.5 123.5q-72 -129 -140 -247q24 -42 70.5 -124.5t69.5 -123.5q24 41 70 123.5t70 124.5z
" />
    </font>
</defs>
</svg>
